<svg xmlns="http://www.w3.org/2000/svg" width="596.752" height="287.713" viewBox="0 0 596.752 287.713">
  <g id="Group_10744" data-name="Group 10744" transform="translate(0.232)">
    <ellipse id="Ellipse_91" data-name="Ellipse 91" cx="293.348" cy="17.198" rx="293.348" ry="17.198" transform="translate(6.472 253.318)" fill="#f2f2f2"/>
    <path id="Path_1066" data-name="Path 1066" d="M508.542,324.894c-42.324,0-72.713,27.154-72.713,90.514,0,71.808,30.388,90.816,72.713,90.816s74.523-20.818,74.523-90.816C583.065,340.583,550.866,324.894,508.542,324.894Zm.278,157.494c-29.315,0-44.63-17.2-44.63-66.934,0-43.884,15.942-67.027,45.257-67.027s45.257,15.2,45.257,67.027c0,48.482-16.569,66.934-45.884,66.934Z" transform="translate(-219.951 -242.648)" fill="#2f2e41"/>
    <path id="Path_1067" data-name="Path 1067" d="M249.1,463.483H231.6V411.952a10.32,10.32,0,0,0-10.32-10.32h-4.1a10.32,10.32,0,0,0-10.32,10.32v51.531H157.5a5.892,5.892,0,0,1-5.209-8.644l52.242-98.877a10.32,10.32,0,0,0-4.718-14.153l-3.084-1.456a10.32,10.32,0,0,0-13.508,4.467L119.511,464.012a13.994,13.994,0,0,0-1.653,6.6h0A13.994,13.994,0,0,0,131.852,484.6h75.012v32.585a12.37,12.37,0,0,0,12.37,12.37h0a12.37,12.37,0,0,0,12.37-12.37V484.6h17.5a10.56,10.56,0,0,0,10.56-10.56h0a10.56,10.56,0,0,0-10.56-10.56Z" transform="translate(-90.869 -249.991)" fill="#262262"/>
    <path id="Path_1068" data-name="Path 1068" d="M907.1,463.483H889.6V411.952a10.32,10.32,0,0,0-10.319-10.32h-4.1a10.32,10.32,0,0,0-10.32,10.32v51.531H815.5a5.892,5.892,0,0,1-5.209-8.644l52.242-98.877a10.32,10.32,0,0,0-4.718-14.153l-3.084-1.456a10.32,10.32,0,0,0-13.508,4.467L777.508,464.012a14,14,0,0,0-1.653,6.6h0A13.994,13.994,0,0,0,789.849,484.6H864.86v32.585a12.37,12.37,0,0,0,12.37,12.37h0a12.37,12.37,0,0,0,12.37-12.37V484.6h17.5a10.56,10.56,0,0,0,10.56-10.56h0a10.56,10.56,0,0,0-10.56-10.56Z" transform="translate(-357.681 -249.991)" fill="#262262"/>
    <path id="Path_1069" data-name="Path 1069" d="M258.906,451.23h-17.5V399.7a10.32,10.32,0,0,0-10.32-10.32h-4.1a10.32,10.32,0,0,0-10.32,10.32V451.23h-49.36a5.892,5.892,0,0,1-5.209-8.644l52.242-98.877a10.32,10.32,0,0,0-4.718-14.153l-3.084-1.456a10.32,10.32,0,0,0-13.508,4.467L129.314,451.759a13.993,13.993,0,0,0-1.653,6.6h0a13.994,13.994,0,0,0,13.994,13.994h75.011v32.585a12.37,12.37,0,0,0,12.37,12.37h0a12.37,12.37,0,0,0,12.37-12.37V472.349h17.5a10.56,10.56,0,0,0,10.56-10.56h0a10.56,10.56,0,0,0-10.559-10.56Z" transform="translate(-95.845 -243.772)" fill="none" stroke="#3f3d56" stroke-miterlimit="10" stroke-width="1"/>
    <path id="Path_1070" data-name="Path 1070" d="M925.479,451.23h-17.5V399.7a10.32,10.32,0,0,0-10.32-10.32h-4.1a10.32,10.32,0,0,0-10.32,10.32V451.23H833.88a5.891,5.891,0,0,1-5.209-8.644l52.242-98.877a10.32,10.32,0,0,0-4.718-14.153l-3.084-1.456a10.32,10.32,0,0,0-13.508,4.467L795.887,451.759a14,14,0,0,0-1.653,6.6h0a13.994,13.994,0,0,0,13.994,13.994H883.24v32.585a12.37,12.37,0,0,0,12.37,12.37h0a12.37,12.37,0,0,0,12.37-12.37V472.349h17.5a10.56,10.56,0,0,0,10.56-10.56h0a10.56,10.56,0,0,0-10.561-10.56Z" transform="translate(-367.009 -243.772)" fill="none" stroke="#3f3d56" stroke-miterlimit="10" stroke-width="1"/>
    <path id="Path_1071" data-name="Path 1071" d="M528.147,313.866c-42.324,0-72.713,27.154-72.713,90.514,0,71.808,30.388,90.816,72.713,90.816s74.523-20.818,74.523-90.816C602.67,329.555,570.471,313.866,528.147,313.866Zm.278,157.494c-29.315,0-44.63-17.2-44.63-66.934,0-43.884,15.942-67.027,45.257-67.027s45.257,15.2,45.257,67.027c0,48.482-16.569,66.934-45.884,66.934Z" transform="translate(-228.202 -237.051)" fill="none" stroke="#3f3d56" stroke-miterlimit="10" stroke-width="1"/>
    <circle id="Ellipse_92" data-name="Ellipse 92" cx="6.353" cy="6.353" r="6.353" transform="translate(255.023 2.634)" fill="#2f2e41"/>
    <ellipse id="Ellipse_93" data-name="Ellipse 93" cx="17.82" cy="23.089" rx="17.82" ry="23.089" transform="translate(260.966 0)" fill="#2f2e41"/>
    <path id="Path_1072" data-name="Path 1072" d="M547.3,217.292c-8.927,0-16.321-8.505-17.618-19.6a30.062,30.062,0,0,0-.2,3.487c0,12.752,7.979,23.089,17.82,23.089s17.82-10.337,17.82-23.089a30.036,30.036,0,0,0-.2-3.487C563.617,208.787,556.223,217.292,547.3,217.292Z" transform="translate(-268.509 -178.087)" opacity="0.1"/>
    <path id="Path_1073" data-name="Path 1073" d="M611.505,335.469c-.383,1.573-2.033,2.832-3.86,3.712-3.842,1.85-8.581,2.4-13.178,2.587a22.249,22.249,0,0,1-3.518-.065,10.114,10.114,0,0,1-6.033-2.773.828.828,0,0,1,.022-1.4c2.447-2.688,6.531-4.337,10.645-5.523,3.12-.9,8.56-3.231,11.962-2.916C610.839,329.395,611.988,333.483,611.505,335.469Z" transform="translate(-293.362 -244.762)" fill="#3f3d56"/>
    <path id="Path_1074" data-name="Path 1074" d="M611.505,335.469c-.383,1.573-2.033,2.832-3.86,3.712-3.842,1.85-8.581,2.4-13.178,2.587a22.249,22.249,0,0,1-3.518-.065,10.114,10.114,0,0,1-6.033-2.773.828.828,0,0,1,.022-1.4c2.447-2.688,6.531-4.337,10.645-5.523,3.12-.9,8.56-3.231,11.962-2.916C610.839,329.395,611.988,333.483,611.505,335.469Z" transform="translate(-293.362 -244.762)" opacity="0.1"/>
    <path id="Path_1075" data-name="Path 1075" d="M539,291.739a9.736,9.736,0,0,0-.59,7.424,12.971,12.971,0,0,0,4.348,6.154c4.971,3.985,11.813,4.533,18.184,4.478a140.177,140.177,0,0,0,16.7-1.144,19.963,19.963,0,0,0,5.418-1.258,8.3,8.3,0,0,0,4.647-4.691,5.715,5.715,0,0,0-1.543-6.192c-1.545-1.256-3.675-1.428-5.662-1.548l-11.37-.683a19.285,19.285,0,0,1,3.987-2.606c1.815-1.1,3.021-2.937,4.34-4.6a63.528,63.528,0,0,1,6.618-6.8,9.77,9.77,0,0,0,3.293,5.331c1.58,1.465,3.4,2.644,5.045,4.038,3.978,3.377,6.843,7.962,11.027,11.081a21.584,21.584,0,0,0,7.9-3.946l-1.626-2.946a1.939,1.939,0,0,0-.613-.765c-.46-.283-1.054-.137-1.588-.217-1.428-.214-2.052-1.864-2.613-3.195-1.539-3.655-4.485-6.491-7-9.556a48.269,48.269,0,0,1-4.923-7.25,24.8,24.8,0,0,0-2.766-4.434,6.24,6.24,0,0,0-4.5-2.354,8.667,8.667,0,0,0-4.291,1.568,113.509,113.509,0,0,0-11.637,7.928,26.927,26.927,0,0,1-6.151,4.025c-.959.389-1.97.655-2.89,1.129a19.326,19.326,0,0,0-4.152,3.479A27.6,27.6,0,0,1,539,291.739Z" transform="translate(-269.597 -212.786)" fill="#3f3d56"/>
    <path id="Path_1076" data-name="Path 1076" d="M573.292,233.14a11.713,11.713,0,0,1-.854,3.956,4.947,4.947,0,0,1-2.84,2.744,6.094,6.094,0,0,1-2.769.09,5.359,5.359,0,0,1-2.256-.769,4.81,4.81,0,0,1-1.791-3.321c-.194-1.278-.107-2.585-.231-3.872a21.141,21.141,0,0,0-.592-3.081c-.084-.336-.169-.671-.253-1.006s-.163-.669-.237-1c-.068-.315-.132-.631-.186-.948-.045-.268-.085-.538-.115-.809a9.067,9.067,0,0,0-.4-2.369,7.184,7.184,0,0,0-.831-1.405c-.141-.2-.277-.4-.4-.612a2.9,2.9,0,0,1-.479-1.846,1.614,1.614,0,0,1,.073-.3c.012-.037.026-.074.042-.11a.887.887,0,0,0,.606-.566,1.692,1.692,0,0,0-.073-.876,5.576,5.576,0,0,0-.473-1.127c-.13-.236-.572-.66-.575-.93-.006-.542,1.054-.979,1.483-1.193a8.272,8.272,0,0,1,4.234-.858,3.122,3.122,0,0,1,2.472,1.137,7.457,7.457,0,0,1,.6,2.448.726.726,0,0,0,.147.327.66.66,0,0,0,.364.167,2.24,2.24,0,0,0,.7.028h0a1.435,1.435,0,0,0,.183-.026,2.441,2.441,0,0,0,1-.432q.288-.077.581-.126l.023,0c.776,2.45.877,5.077,1.512,7.571a19.439,19.439,0,0,1,.829,3.744c0,.056.006.113.008.17.009.411-.023.824-.006,1.233a3.437,3.437,0,0,0,.062.549,7.654,7.654,0,0,0,.259.858l0,.014c.029.09.057.181.081.273.017.067.032.132.045.2l0,0A7.353,7.353,0,0,1,573.292,233.14Z" transform="translate(-282.718 -185.815)" fill="#fbbebe"/>
    <circle id="Ellipse_94" data-name="Ellipse 94" cx="9.143" cy="9.143" r="9.143" transform="translate(270.073 13.017)" fill="#fbbebe"/>
    <path id="Path_1077" data-name="Path 1077" d="M629.5,261.356a14.994,14.994,0,0,0-2.578-6.945q.355,2.115.713,4.229a1.583,1.583,0,0,1-1.658-.51,5.093,5.093,0,0,1-.869-1.613,33.229,33.229,0,0,0-4.043-7.257c-5.82-.485-11.574-2.9-16.692-5.71s-9.911-6.181-14.963-9.112a21.455,21.455,0,0,0-2.73-1.395c-1.581-.634-3.355-.962-4.853-1.708-.1-.05-.2-.1-.3-.157a6.194,6.194,0,0,1-.958-.643,5.082,5.082,0,0,1-.458-.421,10.019,10.019,0,0,1-1.753-2.932c-.8-1.779-1.091-3.925-1.894-5.7a5.519,5.519,0,0,1,1.232-.869h0c.065-.034.13-.067.2-.1a5.889,5.889,0,0,1,.987-.361q.288-.077.581-.125l.023,0a5.7,5.7,0,0,1,2.7.214,12.5,12.5,0,0,1,3.418,2.1,56.125,56.125,0,0,1,5,3.964c.883.846,1.689,1.776,2.639,2.544a20.755,20.755,0,0,0,2.49,1.65l15.422,9.185c1.74,1.037,3.482,2.073,5.184,3.17,2.585,1.667,5.076,3.474,7.567,5.279l4.4,3.191a4.79,4.79,0,0,1,1.247,1.153,4.172,4.172,0,0,1,.553,1.691A15.455,15.455,0,0,1,629.5,261.356Z" transform="translate(-287.887 -189.383)" fill="#fbbebe"/>
    <path id="Path_1078" data-name="Path 1078" d="M563.091,243.665c-.617,2.766-3.412,4.438-4.874,6.868-1.816,3.016-1.075,6.521-.394,9.975l-3.739,3.222c-.688.59-1.376,1.184-2.117,1.706a28.238,28.238,0,0,1-3.378,1.94l-3.31,1.7a15.82,15.82,0,0,1-3.24,1.373,12.485,12.485,0,0,1-6.634-.479,3,3,0,0,1-.725-.3,1.182,1.182,0,0,1-.344-.311,1.926,1.926,0,0,1-.218-1.251,58.773,58.773,0,0,1,1.985-10.681,31.485,31.485,0,0,1,4.562-11.193,33.669,33.669,0,0,1,3.905-5.67,9.1,9.1,0,0,0,1.81-2.334c.55-1.255.338-2.695.449-4.062a8.445,8.445,0,0,1,.8-2.958v0a8.408,8.408,0,0,1,.859-1.419l.451,1.049q.149.344.294.686.191.442.378.88l1.082,2.518a10.637,10.637,0,0,0,1.643,2.927,3.2,3.2,0,0,0,5.478-.42,10.47,10.47,0,0,0,1.119-2.961,9.463,9.463,0,0,0,.124-3.858,45.615,45.615,0,0,0-2.185-7.278,7.357,7.357,0,0,1-.531-2.4,1.635,1.635,0,0,1,.028-.276l.014-.071a5.88,5.88,0,0,1,.987-.361q.288-.077.581-.126,1.006,5.448,2.016,10.9c.016.085.033.17.048.257.1.521.194,1.041.3,1.56.1.471.2.941.321,1.407l0,.014c.04.158.082.315.126.471v0c.12.428.253.852.4,1.271C562.087,238.509,563.676,241.047,563.091,243.665Z" transform="translate(-270.955 -189.464)" fill="#262262"/>
    <path id="Path_1079" data-name="Path 1079" d="M668.316,337.881a3.241,3.241,0,0,0,.3,1.548c.572,1.046,1.945,1.283,3.133,1.381a92.775,92.775,0,0,0,20.814-.634,2.407,2.407,0,0,0,1.059-.329c.98-.687.376-2.361-.694-2.9s-2.34-.407-3.514-.639a11.068,11.068,0,0,1-3.289-1.426q-3.572-2.052-7.039-4.279c-1.376-.884-3-1.827-4.55-1.3C670.34,330.724,668.289,333.353,668.316,337.881Z" transform="translate(-330.459 -244.809)" fill="#3f3d56"/>
    <path id="Path_1080" data-name="Path 1080" d="M534.694,232.723v0c-.011.065-.022.129-.036.192-.017.105-.037.212-.057.318-.192.984-.428,1.963-.7,2.936-.744,2.689-1.74,5.334-2.729,7.94l-7.96,20.968c-.669,1.76-1.337,3.522-2.1,5.247-.254.575-.516,1.154-.776,1.74a24.208,24.208,0,0,0-2.126,6.493,13.515,13.515,0,0,0-.094,4.452,4.567,4.567,0,0,0,2.575,3.432c.679.265,1.65.62,1.464,1.325-.1.387-.541.576-.936.641a3.6,3.6,0,0,1-2.938-.846c-.742-.659-1.312-1.683-2.3-1.793a3.889,3.889,0,0,0-1.938.621c-2.554,1.167-5.529.35-8.211-.479a2.881,2.881,0,0,1,2.385-2.019,19.291,19.291,0,0,1,3.308-.093,1.728,1.728,0,0,0,1.006-.259,1.824,1.824,0,0,0,.542-.927,38.9,38.9,0,0,0,1.582-6.474c.356-2.3.505-4.632,1.013-6.9.4-1.771,1.006-3.487,1.529-5.225a110.669,110.669,0,0,0,2.492-10.872,38.427,38.427,0,0,0,.7-4.613c.088-1.286.047-2.579.171-3.86a30,30,0,0,1,1.04-4.923q.711-2.634,1.421-5.264c.7-2.6,1.455-5.292,3.234-7.31a6.875,6.875,0,0,1,4.938-2.358,4.867,4.867,0,0,1,1.049.113l.172.043a4.254,4.254,0,0,1,1.071.443c.548-.349.827-.226,1.192.311a3.434,3.434,0,0,1,.434,1.869A25.817,25.817,0,0,1,534.694,232.723Z" transform="translate(-258.473 -191.853)" fill="#fbbebe"/>
    <path id="Path_1081" data-name="Path 1081" d="M561.437,234.589l-.023.023-.125.126-1.246,1.244-.611-2.565-2.094-8.792a4.867,4.867,0,0,1,1.049.113,1.623,1.623,0,0,1,.073-.3l.1.339.71,2.414,1.344,4.584.221.755v0Z" transform="translate(-282.775 -191.665)" fill="#58b760"/>
    <path id="Path_1082" data-name="Path 1082" d="M561.271,181.7a6.2,6.2,0,0,1-1.822,4.381,6.071,6.071,0,0,1-.67.579,6.169,6.169,0,0,1-3.711,1.243h-7.434a6.2,6.2,0,1,1,0-12.4h7.434A6.22,6.22,0,0,1,561.271,181.7Z" transform="translate(-274.772 -166.826)" fill="#2f2e41"/>
    <circle id="Ellipse_95" data-name="Ellipse 95" cx="6.353" cy="6.353" r="6.353" transform="translate(289.347 2.634)" fill="#2f2e41"/>
    <path id="Path_1083" data-name="Path 1083" d="M595.315,163.234c-.078,0-.155,0-.233.006a6.352,6.352,0,0,1,0,12.695c.077,0,.155.006.233.006a6.353,6.353,0,0,0,0-12.707Z" transform="translate(-299.393 -160.6)" opacity="0.1"/>
    <path id="Path_1084" data-name="Path 1084" d="M527.647,163.234c.078,0,.155,0,.232.006a6.352,6.352,0,0,0,0,12.695c-.077,0-.154.006-.232.006a6.353,6.353,0,1,1,0-12.707Z" transform="translate(-266.615 -160.6)" opacity="0.1"/>
    <path id="Path_1085" data-name="Path 1085" d="M561.344,198.159a6.17,6.17,0,0,1-3.711,1.243H550.2a6.17,6.17,0,0,1-3.711-1.243Z" transform="translate(-277.313 -178.325)" opacity="0.1"/>
    <path id="Path_1086" data-name="Path 1086" d="M674.14,288.913s1.6,4.615,3.068,3.386l-1.169-6.032Z" transform="translate(-334.771 -223.043)" fill="#fbbebe"/>
    <path id="Path_1087" data-name="Path 1087" d="M1062.962,556.943a10.25,10.25,0,1,0,1.365-19.657l.257,5.276-2.5-4.521a10.211,10.211,0,0,0-5.261,5.773,10.058,10.058,0,0,0-.59,2.772A10.248,10.248,0,0,0,1062.962,556.943Z" transform="translate(-499.972 -350.329)" fill="#57b894"/>
    <path id="Path_1088" data-name="Path 1088" d="M1093.01,609.05c-.881-4.486,2.937-8.464,6.708-11.049s8.177-5.125,9.464-9.513c1.849-6.306-3.659-12.08-7.946-17.06a61.713,61.713,0,0,1-8.137-12.094,16.646,16.646,0,0,1-1.947-5.5c-.338-2.795.56-5.576,1.465-8.242q4.521-13.322,9.666-26.421" transform="translate(-517.668 -341.251)" fill="none" stroke="#3f3d56" stroke-miterlimit="10" stroke-width="1"/>
    <path id="Path_1089" data-name="Path 1089" d="M1063.812,554.185a10.249,10.249,0,1,0,1.365-19.657l.256,5.276-2.5-4.521a10.211,10.211,0,0,0-5.261,5.773,10.04,10.04,0,0,0-.59,2.772A10.247,10.247,0,0,0,1063.812,554.185Z" transform="translate(-500.403 -348.93)" fill="none" stroke="#3f3d56" stroke-miterlimit="10" stroke-width="1"/>
    <path id="Path_1090" data-name="Path 1090" d="M1091.816,508.515a10.237,10.237,0,0,1,7.377-6.5l.844,5.015,1.564-5.267a10.248,10.248,0,1,1-9.786,6.751Z" transform="translate(-517.73 -332.415)" fill="#57b894"/>
    <path id="Path_1091" data-name="Path 1091" d="M1092.956,504.837a10.239,10.239,0,0,1,7.377-6.5l.844,5.015,1.564-5.267a10.248,10.248,0,1,1-9.786,6.751Z" transform="translate(-518.308 -330.548)" fill="none" stroke="#3f3d56" stroke-miterlimit="10" stroke-width="1"/>
    <path id="Path_1092" data-name="Path 1092" d="M1101.077,604.995a10.248,10.248,0,0,0,9.071-18.232l-1.2,4.048-.853-5.074-.026-.01a10.249,10.249,0,0,0-6.99,19.269Z" transform="translate(-519.313 -374.716)" fill="#57b894"/>
    <path id="Path_1093" data-name="Path 1093" d="M1102.077,601.269a10.248,10.248,0,0,0,9.071-18.232l-1.2,4.048-.853-5.074-.026-.01a10.249,10.249,0,1,0-6.99,19.269Z" transform="translate(-519.821 -372.825)" fill="none" stroke="#3f3d56" stroke-miterlimit="10" stroke-width="1"/>
    <path id="Path_1094" data-name="Path 1094" d="M1086.218,647.666a10.244,10.244,0,1,0,1.975-8.026l4.567,6.873-6.24-3.648A10.148,10.148,0,0,0,1086.218,647.666Z" transform="translate(-515.121 -400.366)" fill="#57b894"/>
    <path id="Path_1095" data-name="Path 1095" d="M1087.068,644.908a10.244,10.244,0,1,0,1.975-8.026l4.567,6.873-6.24-3.648A10.151,10.151,0,0,0,1087.068,644.908Z" transform="translate(-515.552 -398.967)" fill="none" stroke="#3f3d56" stroke-miterlimit="10" stroke-width="1"/>
    <path id="Path_1096" data-name="Path 1096" d="M67.49,614.67a6.734,6.734,0,1,0,.9-12.915l.169,3.466-1.64-2.97a6.709,6.709,0,0,0-3.457,3.793,6.6,6.6,0,0,0-.387,1.822A6.733,6.733,0,0,0,67.49,614.67Z" transform="translate(-63.055 -383.089)" fill="#57b894"/>
    <path id="Path_1097" data-name="Path 1097" d="M87.23,648.905c-.579-2.948,1.929-5.561,4.407-7.26s5.373-3.368,6.218-6.25c1.215-4.143-2.4-7.937-5.221-11.209a40.545,40.545,0,0,1-5.346-7.945,10.938,10.938,0,0,1-1.279-3.613,12.47,12.47,0,0,1,.962-5.415q2.97-8.753,6.351-17.359" transform="translate(-74.681 -377.124)" fill="none" stroke="#3f3d56" stroke-miterlimit="10" stroke-width="1"/>
    <path id="Path_1098" data-name="Path 1098" d="M68.053,612.858a6.734,6.734,0,1,0,.9-12.915l.169,3.466-1.64-2.97a6.708,6.708,0,0,0-3.457,3.793,6.6,6.6,0,0,0-.387,1.822A6.733,6.733,0,0,0,68.053,612.858Z" transform="translate(-63.34 -382.169)" fill="none" stroke="#3f3d56" stroke-miterlimit="10" stroke-width="1"/>
    <path id="Path_1099" data-name="Path 1099" d="M86.45,582.851a6.726,6.726,0,0,1,4.847-4.27l.554,3.295,1.028-3.461a6.733,6.733,0,1,1-6.429,4.436Z" transform="translate(-74.723 -371.319)" fill="#57b894"/>
    <path id="Path_1100" data-name="Path 1100" d="M87.2,580.436a6.726,6.726,0,0,1,4.847-4.27l.554,3.3L93.63,576a6.733,6.733,0,1,1-6.429,4.436Z" transform="translate(-75.105 -370.093)" fill="none" stroke="#3f3d56" stroke-miterlimit="10" stroke-width="1"/>
    <path id="Path_1101" data-name="Path 1101" d="M92.536,646.241a6.733,6.733,0,0,0,5.96-11.979l-.79,2.659-.56-3.334-.017-.007a6.734,6.734,0,1,0-4.593,12.66Z" transform="translate(-75.765 -399.111)" fill="#57b894"/>
    <path id="Path_1102" data-name="Path 1102" d="M93.187,643.794a6.733,6.733,0,0,0,5.96-11.979l-.79,2.659-.56-3.334-.017-.006a6.734,6.734,0,1,0-4.593,12.66Z" transform="translate(-76.095 -397.869)" fill="none" stroke="#3f3d56" stroke-miterlimit="10" stroke-width="1"/>
    <path id="Path_1103" data-name="Path 1103" d="M82.769,674.276a6.73,6.73,0,1,0,1.3-5.273l3,4.516-4.1-2.4a6.671,6.671,0,0,0-.2,3.154Z" transform="translate(-73.008 -415.964)" fill="#57b894"/>
    <path id="Path_1104" data-name="Path 1104" d="M83.332,672.465a6.73,6.73,0,1,0,1.3-5.273l3,4.516-4.1-2.4A6.671,6.671,0,0,0,83.332,672.465Z" transform="translate(-73.294 -415.044)" fill="none" stroke="#3f3d56" stroke-miterlimit="10" stroke-width="1"/>
    <ellipse id="Ellipse_96" data-name="Ellipse 96" cx="8.372" cy="10.834" rx="8.372" ry="10.834" transform="translate(258.433 146.319)" fill="#2f2e41"/>
    <ellipse id="Ellipse_97" data-name="Ellipse 97" cx="8.372" cy="10.834" rx="8.372" ry="10.834" transform="translate(309.959 146.566)" fill="#2f2e41"/>
    <path id="Path_1105" data-name="Path 1105" d="M592.033,533.364c0,4.9-6.835,8.864-15.266,8.864S561.5,538.26,561.5,533.364c0-4.24,5.127-7.786,11.977-8.653a24.645,24.645,0,0,1,3.29-.212,24.973,24.973,0,0,1,5.481.591C587.97,526.366,592.033,529.592,592.033,533.364Z" transform="translate(-282.958 -343.955)" fill="#2f2e41"/>
    <ellipse id="Ellipse_98" data-name="Ellipse 98" cx="8.372" cy="10.834" rx="8.372" ry="10.834" transform="translate(260.661 143.857)" fill="none" stroke="#3f3d56" stroke-miterlimit="10" stroke-width="1"/>
    <ellipse id="Ellipse_99" data-name="Ellipse 99" cx="8.372" cy="10.834" rx="8.372" ry="10.834" transform="translate(312.187 144.103)" fill="none" stroke="#3f3d56" stroke-miterlimit="10" stroke-width="1"/>
    <ellipse id="Ellipse_100" data-name="Ellipse 100" cx="15.266" cy="8.864" rx="15.266" ry="8.864" transform="translate(280.777 178.083)" fill="none" stroke="#3f3d56" stroke-miterlimit="10" stroke-width="1"/>
    <path id="Path_1106" data-name="Path 1106" d="M594.356,525.576a2.431,2.431,0,0,1-.65,1.67,2.137,2.137,0,0,1-1.566.693h-4.925A2.3,2.3,0,0,1,585,525.576a2.415,2.415,0,0,1,.4-1.35,23.154,23.154,0,0,1,3.29-.226,23.467,23.467,0,0,1,5.481.63A2.492,2.492,0,0,1,594.356,525.576Z" transform="translate(-294.737 -343.701)" fill="#fff"/>
    <circle id="Ellipse_101" data-name="Ellipse 101" cx="2.462" cy="2.462" r="2.462" transform="translate(266.647 149.274)" fill="#fff"/>
    <circle id="Ellipse_102" data-name="Ellipse 102" cx="2.462" cy="2.462" r="2.462" transform="translate(318.316 149.274)" fill="#fff"/>
    <circle id="Ellipse_103" data-name="Ellipse 103" cx="2.462" cy="2.462" r="2.462" transform="translate(321.093 172.42)" fill="#58b760" opacity="0.3"/>
    <circle id="Ellipse_104" data-name="Ellipse 104" cx="2.462" cy="2.462" r="2.462" transform="translate(253.313 172.42)" fill="#58b760" opacity="0.3"/>
  </g>
</svg>
