<svg xmlns="http://www.w3.org/2000/svg" xmlns:xlink="http://www.w3.org/1999/xlink" width="149" zoomAndPan="magnify" viewBox="0 0 111.75 110.999996" height="148" preserveAspectRatio="xMidYMid meet" version="1.0"><defs><clipPath id="16ded00bac"><path d="M 9 18 L 102.71875 18 L 102.71875 94 L 9 94 Z M 9 18 " clip-rule="nonzero"/></clipPath></defs><g clip-path="url(#16ded00bac)"><path fill="#ffffff" d="M 52.226562 83.714844 C 52.523438 84.035156 52.75 84.398438 52.90625 84.804688 C 53.066406 85.214844 53.140625 85.632812 53.136719 86.070312 C 53.132812 86.503906 53.046875 86.925781 52.878906 87.328125 C 52.714844 87.730469 52.480469 88.089844 52.175781 88.402344 C 51.066406 89.621094 49.894531 90.777344 48.65625 91.867188 C 48.0625 92.289062 47.417969 92.621094 46.734375 92.871094 C 46.378906 92.898438 46.023438 92.878906 45.675781 92.804688 C 45.328125 92.734375 44.996094 92.613281 44.683594 92.441406 C 44.371094 92.273438 44.089844 92.058594 43.839844 91.808594 C 43.589844 91.554688 43.378906 91.269531 43.214844 90.957031 C 43.046875 90.683594 42.929688 90.390625 42.855469 90.078125 C 42.78125 89.765625 42.757812 89.449219 42.785156 89.132812 C 42.8125 88.8125 42.886719 88.503906 43.007812 88.207031 C 43.132812 87.914062 43.296875 87.644531 43.507812 87.398438 C 44.761719 85.949219 46.113281 84.597656 47.566406 83.34375 C 47.898438 83.0625 48.273438 82.851562 48.691406 82.71875 C 49.109375 82.582031 49.535156 82.53125 49.972656 82.566406 C 50.410156 82.601562 50.824219 82.71875 51.214844 82.917969 C 51.605469 83.117188 51.941406 83.382812 52.226562 83.714844 Z M 29.730469 61.683594 C 29.429688 61.039062 28.980469 60.519531 28.382812 60.128906 C 27.785156 59.738281 27.125 59.535156 26.410156 59.515625 C 25.664062 59.769531 24.964844 60.117188 24.308594 60.554688 C 23.011719 61.691406 21.789062 62.90625 20.636719 64.191406 C 20.328125 64.511719 20.089844 64.878906 19.925781 65.296875 C 19.765625 65.710938 19.691406 66.144531 19.703125 66.589844 C 19.71875 67.035156 19.816406 67.464844 20.003906 67.871094 C 20.1875 68.277344 20.445312 68.628906 20.777344 68.933594 C 21.085938 69.242188 21.441406 69.488281 21.84375 69.660156 C 22.246094 69.832031 22.664062 69.925781 23.105469 69.9375 C 23.542969 69.945312 23.96875 69.875 24.378906 69.71875 C 24.789062 69.566406 25.15625 69.339844 25.476562 69.042969 C 26.789062 67.863281 28.035156 66.621094 29.214844 65.3125 C 29.449219 65.078125 29.636719 64.8125 29.785156 64.515625 C 29.929688 64.21875 30.027344 63.910156 30.074219 63.582031 C 30.117188 63.253906 30.113281 62.929688 30.054688 62.605469 C 29.996094 62.28125 29.890625 61.972656 29.730469 61.683594 Z M 36.65625 68.238281 C 36.328125 67.9375 35.953125 67.710938 35.535156 67.550781 C 35.117188 67.390625 34.6875 67.3125 34.242188 67.320312 C 33.792969 67.324219 33.363281 67.410156 32.949219 67.578125 C 32.535156 67.746094 32.167969 67.984375 31.84375 68.292969 C 30.625 69.398438 29.46875 70.566406 28.375 71.796875 C 27.972656 72.355469 27.652344 72.957031 27.421875 73.601562 C 27.378906 73.964844 27.394531 74.328125 27.460938 74.6875 C 27.53125 75.046875 27.65625 75.386719 27.832031 75.707031 C 28.007812 76.027344 28.226562 76.3125 28.492188 76.566406 C 28.757812 76.820312 29.054688 77.027344 29.382812 77.191406 C 29.679688 77.351562 29.996094 77.464844 30.332031 77.527344 C 30.667969 77.589844 31.003906 77.597656 31.339844 77.554688 C 31.675781 77.511719 32 77.417969 32.308594 77.273438 C 32.617188 77.128906 32.894531 76.941406 33.140625 76.710938 C 34.421875 75.558594 35.65625 74.351562 36.816406 73.078125 C 37.136719 72.753906 37.382812 72.375 37.550781 71.949219 C 37.714844 71.523438 37.792969 71.082031 37.777344 70.625 C 37.761719 70.167969 37.65625 69.730469 37.460938 69.316406 C 37.269531 68.902344 37 68.542969 36.65625 68.238281 Z M 45.488281 78.878906 C 45.351562 77 44.75 75.875 43.378906 75.261719 C 43.0625 75.109375 42.734375 75.007812 42.386719 74.960938 C 42.042969 74.910156 41.695312 74.917969 41.351562 74.980469 C 41.007812 75.039062 40.683594 75.152344 40.375 75.320312 C 40.066406 75.484375 39.792969 75.691406 39.550781 75.945312 C 38.394531 77.003906 37.289062 78.128906 36.203125 79.261719 C 35.863281 79.578125 35.601562 79.953125 35.410156 80.378906 C 35.222656 80.804688 35.125 81.25 35.117188 81.714844 C 35.109375 82.179688 35.195312 82.628906 35.371094 83.058594 C 35.546875 83.492188 35.796875 83.871094 36.128906 84.199219 C 36.460938 84.527344 36.84375 84.78125 37.277344 84.953125 C 37.710938 85.128906 38.160156 85.214844 38.628906 85.207031 C 39.097656 85.203125 39.542969 85.109375 39.972656 84.921875 C 40.402344 84.738281 40.78125 84.480469 41.105469 84.144531 C 42.246094 83.117188 43.328125 82.03125 44.351562 80.890625 C 44.808594 80.261719 45.1875 79.589844 45.488281 78.875 Z M 97.351562 29.246094 C 96.660156 28.25 95.894531 27.316406 95.050781 26.441406 C 94.214844 25.546875 93.316406 24.71875 92.351562 23.957031 C 91.09375 22.988281 89.742188 22.179688 88.292969 21.53125 C 84.339844 19.6875 80.183594 18.707031 75.824219 18.582031 C 71.371094 18.691406 67.191406 19.8125 63.285156 21.941406 C 60.1875 23.773438 57.4375 26.027344 55.039062 28.703125 C 51.410156 32.339844 47.726562 35.929688 44.105469 39.574219 C 43.859375 39.800781 43.644531 40.050781 43.453125 40.324219 C 43.265625 40.597656 43.109375 40.890625 42.988281 41.199219 C 42.863281 41.507812 42.777344 41.824219 42.722656 42.152344 C 42.671875 42.480469 42.65625 42.8125 42.679688 43.144531 C 42.699219 43.476562 42.757812 43.800781 42.851562 44.117188 C 42.949219 44.4375 43.078125 44.742188 43.238281 45.03125 C 43.402344 45.320312 43.59375 45.589844 43.816406 45.835938 C 44.042969 46.085938 44.289062 46.304688 44.5625 46.496094 C 44.984375 46.804688 45.445312 47.035156 45.949219 47.179688 C 46.453125 47.328125 46.96875 47.382812 47.492188 47.347656 C 48.015625 47.3125 48.515625 47.1875 48.996094 46.976562 C 49.472656 46.765625 49.902344 46.476562 50.277344 46.113281 C 51.972656 44.527344 60.515625 36.238281 62.972656 33.78125 C 75.855469 46.492188 85.285156 55.878906 87.554688 58.199219 C 89.136719 59.808594 90.589844 61.316406 90.589844 61.316406 C 91.605469 62.378906 92.636719 63.464844 93.71875 64.589844 C 94.453125 63.671875 95.265625 62.75 96.058594 61.796875 C 96.859375 60.835938 97.601562 59.835938 98.289062 58.792969 C 100.65625 55.03125 102.046875 50.945312 102.453125 46.523438 C 102.601562 44.140625 102.417969 41.78125 101.90625 39.445312 C 101.394531 37.113281 100.570312 34.890625 99.4375 32.785156 C 98.820312 31.5625 98.125 30.382812 97.351562 29.246094 Z M 62.964844 39.230469 C 59.40625 42.679688 53.882812 48.070312 52.507812 49.273438 C 52.109375 49.601562 51.6875 49.890625 51.238281 50.144531 C 50.789062 50.394531 50.320312 50.601562 49.832031 50.765625 C 49.34375 50.929688 48.84375 51.050781 48.335938 51.121094 C 47.824219 51.195312 47.3125 51.222656 46.796875 51.199219 C 46.285156 51.179688 45.773438 51.113281 45.273438 51 C 44.769531 50.886719 44.28125 50.726562 43.808594 50.523438 C 43.335938 50.320312 42.886719 50.074219 42.457031 49.789062 C 42.03125 49.503906 41.632812 49.179688 41.265625 48.820312 C 40.894531 48.464844 40.5625 48.074219 40.265625 47.652344 C 39.96875 47.234375 39.714844 46.789062 39.503906 46.320312 C 39.289062 45.855469 39.121094 45.371094 39 44.871094 C 38.875 44.375 38.800781 43.867188 38.773438 43.355469 C 38.746094 42.84375 38.765625 42.332031 38.832031 41.824219 C 38.898438 41.316406 39.011719 40.816406 39.175781 40.328125 C 39.335938 39.839844 39.539062 39.371094 39.789062 38.921875 C 40.035156 38.472656 40.324219 38.050781 40.652344 37.652344 C 41.738281 36.367188 42.972656 35.203125 44.171875 34.011719 C 47.148438 31.035156 50.144531 28.0625 53.203125 25.023438 C 52.371094 24.277344 51.488281 23.589844 50.566406 22.957031 C 49.640625 22.324219 48.675781 21.757812 47.675781 21.253906 C 46.675781 20.746094 45.644531 20.308594 44.585938 19.941406 C 43.527344 19.574219 42.449219 19.273438 41.351562 19.046875 C 40.253906 18.820312 39.144531 18.667969 38.027344 18.585938 C 36.90625 18.503906 35.789062 18.496094 34.667969 18.5625 C 33.550781 18.628906 32.4375 18.769531 31.335938 18.984375 C 30.234375 19.195312 29.152344 19.480469 28.089844 19.835938 C 17.371094 23.464844 11.152344 31.089844 9.890625 42.324219 C 9.671875 44.132812 9.65625 45.941406 9.84375 47.75 C 10.027344 49.5625 10.40625 51.328125 10.984375 53.054688 C 11.5625 54.78125 12.320312 56.425781 13.261719 57.984375 C 14.199219 59.546875 15.300781 60.984375 16.558594 62.300781 C 18.300781 60.71875 19.902344 59.222656 21.535156 57.777344 C 21.746094 57.578125 21.96875 57.390625 22.199219 57.214844 C 22.433594 57.042969 22.675781 56.882812 22.929688 56.738281 C 23.183594 56.59375 23.441406 56.464844 23.710938 56.351562 C 23.976562 56.238281 24.253906 56.140625 24.53125 56.058594 C 24.8125 55.976562 25.09375 55.914062 25.382812 55.867188 C 25.671875 55.816406 25.960938 55.789062 26.25 55.773438 C 26.542969 55.761719 26.832031 55.765625 27.125 55.789062 C 27.414062 55.8125 27.703125 55.851562 27.988281 55.90625 C 28.273438 55.960938 28.554688 56.035156 28.832031 56.125 C 29.109375 56.214844 29.378906 56.320312 29.644531 56.445312 C 29.910156 56.566406 30.164062 56.703125 30.414062 56.855469 C 30.660156 57.007812 30.898438 57.175781 31.125 57.359375 C 31.351562 57.539062 31.570312 57.734375 31.773438 57.941406 C 31.976562 58.148438 32.167969 58.363281 32.347656 58.59375 C 32.523438 58.824219 32.6875 59.0625 32.839844 59.3125 C 32.988281 59.5625 33.121094 59.820312 33.238281 60.085938 C 33.648438 61.148438 33.960938 62.242188 34.179688 63.359375 C 38.804688 63.765625 41.324219 66.34375 41.738281 70.984375 C 46.480469 71.414062 49.042969 73.96875 49.421875 78.597656 C 49.554688 78.640625 49.691406 78.675781 49.832031 78.695312 C 50.398438 78.710938 50.953125 78.789062 51.5 78.929688 C 52.046875 79.074219 52.570312 79.273438 53.070312 79.535156 C 53.570312 79.796875 54.035156 80.113281 54.464844 80.480469 C 54.890625 80.847656 55.273438 81.257812 55.605469 81.710938 C 55.941406 82.164062 56.21875 82.648438 56.441406 83.167969 C 56.664062 83.683594 56.824219 84.21875 56.925781 84.773438 C 57.023438 85.328125 57.0625 85.886719 57.03125 86.449219 C 57.003906 87.011719 56.914062 87.5625 56.757812 88.101562 C 56.683594 88.441406 56.753906 88.746094 56.964844 89.019531 C 58.332031 90.417969 59.695312 91.824219 61.164062 93.117188 C 61.460938 93.351562 61.789062 93.53125 62.144531 93.652344 C 62.503906 93.773438 62.871094 93.832031 63.25 93.828125 C 63.628906 93.824219 63.996094 93.757812 64.351562 93.628906 C 64.710938 93.5 65.035156 93.316406 65.324219 93.074219 C 65.53125 92.917969 65.71875 92.738281 65.886719 92.539062 C 66.054688 92.335938 66.195312 92.121094 66.3125 91.886719 C 66.429688 91.65625 66.519531 91.414062 66.582031 91.160156 C 66.644531 90.910156 66.679688 90.652344 66.683594 90.390625 C 66.6875 90.132812 66.664062 89.875 66.609375 89.621094 C 66.554688 89.363281 66.476562 89.121094 66.367188 88.882812 C 66.257812 88.648438 66.121094 88.425781 65.960938 88.21875 C 65.804688 88.011719 65.621094 87.828125 65.421875 87.660156 C 61.96875 84.222656 58.503906 80.800781 55.054688 77.355469 C 54.902344 77.203125 54.761719 77.035156 54.640625 76.855469 L 48.640625 70.878906 C 48.46875 70.703125 48.339844 70.5 48.246094 70.273438 C 48.15625 70.042969 48.109375 69.804688 48.113281 69.558594 C 48.113281 69.3125 48.164062 69.078125 48.257812 68.851562 C 48.355469 68.621094 48.488281 68.421875 48.664062 68.25 C 48.839844 68.074219 49.039062 67.941406 49.269531 67.84375 C 49.496094 67.75 49.734375 67.699219 49.980469 67.699219 C 50.226562 67.695312 50.464844 67.742188 50.695312 67.832031 C 50.925781 67.921875 51.128906 68.054688 51.308594 68.226562 L 57.339844 74.234375 C 57.503906 74.347656 57.65625 74.472656 57.800781 74.609375 C 58.886719 75.636719 59.976562 76.660156 61.042969 77.707031 C 63.53125 80.15625 65.984375 82.644531 68.496094 85.066406 C 68.664062 85.238281 68.851562 85.394531 69.050781 85.527344 C 69.25 85.660156 69.464844 85.773438 69.6875 85.863281 C 69.910156 85.953125 70.140625 86.019531 70.378906 86.058594 C 70.617188 86.101562 70.859375 86.117188 71.097656 86.109375 C 71.339844 86.101562 71.578125 86.066406 71.8125 86.007812 C 72.046875 85.949219 72.273438 85.867188 72.488281 85.761719 C 72.707031 85.65625 72.910156 85.527344 73.101562 85.378906 C 73.289062 85.234375 73.464844 85.066406 73.617188 84.882812 C 73.90625 84.527344 74.121094 84.136719 74.253906 83.699219 C 74.390625 83.265625 74.441406 82.820312 74.40625 82.367188 C 74.367188 81.914062 74.25 81.484375 74.042969 81.074219 C 73.839844 80.667969 73.570312 80.3125 73.226562 80.011719 C 69.707031 76.480469 66.15625 72.976562 62.617188 69.457031 C 60.929688 67.78125 59.222656 66.125 57.582031 64.402344 C 57.394531 64.230469 57.25 64.027344 57.144531 63.796875 C 57.042969 63.566406 56.988281 63.324219 56.988281 63.070312 C 56.984375 62.816406 57.035156 62.570312 57.132812 62.339844 C 57.234375 62.105469 57.375 61.902344 57.5625 61.726562 C 57.742188 61.546875 57.945312 61.410156 58.179688 61.308594 C 58.414062 61.210938 58.65625 61.160156 58.910156 61.15625 C 59.164062 61.152344 59.410156 61.195312 59.644531 61.285156 C 59.882812 61.378906 60.09375 61.507812 60.277344 61.683594 C 60.515625 61.878906 60.738281 62.085938 60.945312 62.308594 C 65.960938 67.277344 70.960938 72.261719 76 77.203125 C 76.550781 77.746094 77.195312 78.121094 77.941406 78.332031 C 78.296875 78.421875 78.660156 78.453125 79.03125 78.421875 C 79.398438 78.394531 79.753906 78.304688 80.089844 78.160156 C 80.429688 78.011719 80.738281 77.816406 81.007812 77.566406 C 81.28125 77.320312 81.507812 77.035156 81.6875 76.710938 C 81.875 76.382812 82.003906 76.035156 82.074219 75.664062 C 82.144531 75.296875 82.15625 74.921875 82.105469 74.550781 C 82.054688 74.175781 81.945312 73.820312 81.773438 73.484375 C 81.605469 73.148438 81.386719 72.847656 81.121094 72.582031 C 77.277344 68.71875 73.40625 64.886719 69.542969 61.046875 C 68.160156 59.667969 66.746094 58.3125 65.386719 56.90625 C 65.183594 56.734375 65.023438 56.53125 64.90625 56.292969 C 64.789062 56.058594 64.722656 55.808594 64.707031 55.546875 C 64.691406 55.28125 64.726562 55.027344 64.8125 54.777344 C 64.902344 54.53125 65.035156 54.308594 65.210938 54.113281 C 65.40625 53.921875 65.628906 53.773438 65.882812 53.671875 C 66.132812 53.566406 66.398438 53.515625 66.671875 53.519531 C 66.945312 53.523438 67.207031 53.578125 67.457031 53.683594 C 67.707031 53.792969 67.929688 53.945312 68.117188 54.140625 C 68.292969 54.289062 68.441406 54.46875 68.605469 54.628906 C 73.585938 59.574219 78.570312 64.519531 83.554688 69.464844 C 84.046875 70.027344 84.652344 70.414062 85.371094 70.625 C 86.089844 70.832031 86.808594 70.832031 87.523438 70.617188 L 87.625 70.582031 C 87.90625 70.46875 88.167969 70.320312 88.410156 70.140625 C 88.652344 69.957031 88.871094 69.75 89.058594 69.511719 C 89.246094 69.273438 89.402344 69.015625 89.523438 68.738281 C 89.644531 68.460938 89.730469 68.171875 89.777344 67.875 C 89.820312 67.574219 89.828125 67.273438 89.796875 66.972656 C 89.765625 66.671875 89.695312 66.378906 89.585938 66.097656 C 89.476562 65.816406 89.335938 65.550781 89.15625 65.304688 C 88.980469 65.058594 88.773438 64.839844 88.539062 64.648438 C 82.902344 59.023438 70.167969 46.363281 62.964844 39.230469 Z M 62.964844 39.230469 " fill-opacity="1" fill-rule="nonzero"/></g></svg>