<svg xmlns="http://www.w3.org/2000/svg" xmlns:xlink="http://www.w3.org/1999/xlink" width="149" zoomAndPan="magnify" viewBox="0 0 111.75 110.999996" height="148" preserveAspectRatio="xMidYMid meet" version="1.0"><defs><clipPath id="9213c7bdec"><path d="M 77 58 L 111.5 58 L 111.5 77 L 77 77 Z M 77 58 " clip-rule="nonzero"/></clipPath><clipPath id="f277c620a0"><path d="M 62 37.898438 L 72 37.898438 L 72 44 L 62 44 Z M 62 37.898438 " clip-rule="nonzero"/></clipPath><clipPath id="2f63769cb4"><path d="M 4 40 L 107 40 L 107 78.398438 L 4 78.398438 Z M 4 40 " clip-rule="nonzero"/></clipPath></defs><path fill="#ffffff" d="M 3.5625 73.28125 L 21.449219 58.09375 L 34.363281 68.816406 L 20.761719 55.554688 L 0 73.28125 Z M 3.5625 73.28125 " fill-opacity="1" fill-rule="evenodd"/><path fill="#ffffff" d="M 92.394531 73.8125 L 96.445312 73.8125 L 96.445312 77.871094 L 92.394531 77.871094 Z M 92.394531 73.8125 " fill-opacity="1" fill-rule="evenodd"/><path fill="#ffffff" d="M 87.757812 73.8125 L 91.800781 73.8125 L 91.800781 77.871094 L 87.757812 77.871094 Z M 87.757812 73.8125 " fill-opacity="1" fill-rule="evenodd"/><path fill="#ffffff" d="M 87.757812 69.152344 L 91.800781 69.152344 L 91.800781 73.214844 L 87.757812 73.214844 Z M 87.757812 69.152344 " fill-opacity="1" fill-rule="evenodd"/><path fill="#ffffff" d="M 92.394531 69.152344 L 96.445312 69.152344 L 96.445312 73.214844 L 92.394531 73.214844 Z M 92.394531 69.152344 " fill-opacity="1" fill-rule="evenodd"/><g clip-path="url(#9213c7bdec)"><path fill="#ffffff" d="M 90.945312 58.738281 L 77.140625 71.992188 L 90.175781 61.460938 L 108.070312 76.339844 L 111.746094 76.339844 Z M 90.945312 58.738281 " fill-opacity="1" fill-rule="evenodd"/></g><g clip-path="url(#f277c620a0)"><path fill="#ffffff" d="M 65.324219 39.777344 L 71.847656 43.167969 L 71.847656 41.542969 L 65.203125 37.949219 L 62.148438 40.570312 L 62.148438 42.542969 Z M 65.324219 39.777344 " fill-opacity="1" fill-rule="evenodd"/></g><g clip-path="url(#2f63769cb4)"><path fill="#ffffff" d="M 66.292969 78.347656 L 90.703125 54.714844 L 106.371094 66.933594 L 91.953125 53.386719 L 81.59375 55.394531 L 73.546875 47.851562 L 71.460938 47.851562 L 71.460938 44.183594 L 65.324219 40.992188 L 65.324219 48.300781 L 63.257812 45.546875 L 46.261719 41.449219 L 38.488281 48.84375 L 47.109375 42.375 L 66.214844 59.578125 L 61.722656 60.378906 L 57.71875 63.429688 L 50.59375 57.644531 L 19.871094 50.25 L 4.445312 64.28125 L 20.929688 51.425781 L 44.722656 74.652344 L 40.3125 78.347656 Z M 66.292969 78.347656 " fill-opacity="1" fill-rule="evenodd"/></g><path fill="#ffffff" d="M 47.644531 45.828125 L 38.914062 52.835938 L 41.035156 53.695312 C 41.035156 53.695312 47.71875 47.292969 47.71875 47.394531 C 47.71875 47.496094 59.128906 57.085938 59.128906 57.085938 Z M 47.644531 45.828125 " fill-opacity="1" fill-rule="evenodd"/><path fill="#ffffff" d="M 45.640625 50.464844 L 47.417969 50.464844 L 47.417969 52.25 L 45.640625 52.25 Z M 45.640625 50.464844 " fill-opacity="1" fill-rule="evenodd"/><path fill="#ffffff" d="M 45.640625 52.511719 L 47.417969 52.511719 L 47.417969 54.292969 L 45.640625 54.292969 Z M 45.640625 52.511719 " fill-opacity="1" fill-rule="evenodd"/><path fill="#ffffff" d="M 47.683594 52.511719 L 49.457031 52.511719 L 49.457031 54.292969 L 47.683594 54.292969 Z M 47.683594 52.511719 " fill-opacity="1" fill-rule="evenodd"/><path fill="#ffffff" d="M 47.683594 50.464844 L 49.457031 50.464844 L 49.457031 52.25 L 47.683594 52.25 Z M 47.683594 50.464844 " fill-opacity="1" fill-rule="evenodd"/><path fill="#ffffff" d="M 20.808594 71.777344 L 24.851562 71.777344 L 24.851562 75.835938 L 20.808594 75.835938 Z M 20.808594 71.777344 " fill-opacity="1" fill-rule="evenodd"/><path fill="#ffffff" d="M 16.167969 71.777344 L 20.207031 71.777344 L 20.207031 75.835938 L 16.167969 75.835938 Z M 16.167969 71.777344 " fill-opacity="1" fill-rule="evenodd"/><path fill="#ffffff" d="M 16.167969 67.117188 L 20.207031 67.117188 L 20.207031 71.1875 L 16.167969 71.1875 Z M 16.167969 67.117188 " fill-opacity="1" fill-rule="evenodd"/><path fill="#ffffff" d="M 20.808594 67.117188 L 24.851562 67.117188 L 24.851562 71.1875 L 20.808594 71.1875 Z M 20.808594 67.117188 " fill-opacity="1" fill-rule="evenodd"/></svg>