<svg xmlns="http://www.w3.org/2000/svg" xmlns:xlink="http://www.w3.org/1999/xlink" width="149" zoomAndPan="magnify" viewBox="0 0 111.75 110.999996" height="148" preserveAspectRatio="xMidYMid meet" version="1.0"><defs><clipPath id="e455a54d9d"><path d="M 41 8.496094 L 95 8.496094 L 95 71 L 41 71 Z M 41 8.496094 " clip-rule="nonzero"/></clipPath><clipPath id="eb94f96fd0"><path d="M 96 38 L 107.1875 38 L 107.1875 42 L 96 42 Z M 96 38 " clip-rule="nonzero"/></clipPath><clipPath id="f4a41a2ae3"><path d="M 4.4375 74 L 30 74 L 30 102.996094 L 4.4375 102.996094 Z M 4.4375 74 " clip-rule="nonzero"/></clipPath></defs><path fill="#ffffff" d="M 53.21875 42.292969 L 53.21875 33.710938 L 55.660156 33.710938 C 55.34375 35.800781 56.550781 43.625 54.605469 45.058594 C 52.351562 47.1875 47.808594 45.800781 48.070312 42.292969 L 50.53125 42.292969 C 50.367188 44.359375 53.398438 44.363281 53.21875 42.292969 " fill-opacity="1" fill-rule="nonzero"/><path fill="#ffffff" d="M 67.054688 42.703125 C 70.296875 38.972656 65.628906 33.261719 61.671875 36.890625 C 58.402344 40.605469 63.125 46.335938 67.054688 42.703125 Z M 64.367188 46.058594 C 56.121094 46.097656 56.140625 33.492188 64.378906 33.535156 C 72.609375 33.5 72.601562 46.105469 64.367188 46.058594 " fill-opacity="1" fill-rule="nonzero"/><path fill="#ffffff" d="M 74.996094 44.046875 C 76.386719 43.960938 79.375 44.59375 79.289062 42.363281 C 79.371094 40.132812 76.390625 40.738281 74.996094 40.664062 Z M 74.996094 35.601562 L 74.996094 38.773438 C 76.304688 38.695312 79.066406 39.269531 78.992188 37.195312 C 79.070312 35.117188 76.3125 35.667969 74.996094 35.601562 Z M 72.535156 33.710938 C 74.441406 33.863281 78.992188 33.167969 80.414062 34.621094 C 82.234375 36.175781 81.726562 39.09375 79.113281 39.683594 C 81.691406 39.914062 82.71875 43.503906 80.683594 45.050781 C 79.238281 46.484375 74.441406 45.777344 72.535156 45.9375 L 72.535156 33.710938 " fill-opacity="1" fill-rule="nonzero"/><g clip-path="url(#e455a54d9d)"><path fill="#ffffff" d="M 89.4375 67.953125 C 89.964844 68.183594 90.542969 68.132812 91.023438 67.820312 C 91.503906 67.507812 91.78125 66.996094 91.789062 66.421875 L 92.359375 13.21875 C 92.367188 12.644531 92.097656 12.128906 91.621094 11.800781 C 91.148438 11.480469 90.570312 11.417969 90.039062 11.632812 L 44.777344 30.144531 L 44.582031 48.472656 Z M 90.105469 70.738281 C 89.527344 70.738281 88.941406 70.621094 88.390625 70.382812 L 41.929688 50.203125 L 42.152344 29.316406 C 42.160156 28.734375 42.507812 28.21875 43.042969 27.996094 L 89.042969 9.1875 C 90.390625 8.636719 91.90625 8.800781 93.105469 9.617188 C 94.304688 10.433594 95.011719 11.792969 94.992188 13.25 L 94.425781 66.449219 C 94.410156 67.90625 93.671875 69.246094 92.457031 70.039062 C 91.746094 70.503906 90.929688 70.738281 90.105469 70.738281 " fill-opacity="1" fill-rule="nonzero"/></g><path fill="#ffffff" d="M 31.734375 29.121094 C 30.65625 29.121094 29.769531 29.996094 29.757812 31.082031 L 29.585938 47.210938 C 29.582031 47.742188 29.78125 48.242188 30.152344 48.617188 C 30.519531 49 31.015625 49.210938 31.542969 49.214844 L 41.9375 49.328125 L 42.152344 29.230469 L 31.757812 29.121094 C 31.75 29.121094 31.742188 29.121094 31.734375 29.121094 Z M 41.929688 50.515625 C 41.929688 50.515625 41.929688 50.519531 41.929688 50.519531 Z M 43.109375 51.988281 C 43.109375 51.988281 43.105469 51.988281 43.097656 51.988281 L 31.511719 51.859375 C 30.28125 51.847656 29.128906 51.355469 28.269531 50.472656 C 27.40625 49.585938 26.9375 48.417969 26.949219 47.183594 L 27.125 31.054688 C 27.152344 28.5 29.257812 26.464844 31.785156 26.476562 L 43.367188 26.601562 C 44.167969 26.609375 44.808594 27.269531 44.800781 28.066406 L 44.5625 50.546875 C 44.554688 51.339844 43.902344 51.988281 43.109375 51.988281 " fill-opacity="1" fill-rule="nonzero"/><path fill="#ffffff" d="M 86.109375 69.273438 C 86.105469 69.273438 86.097656 69.273438 86.09375 69.273438 C 85.367188 69.265625 84.785156 68.667969 84.792969 67.9375 L 85.394531 11.550781 C 85.402344 10.828125 85.992188 10.246094 86.714844 10.246094 C 86.714844 10.246094 86.722656 10.246094 86.726562 10.246094 C 87.453125 10.253906 88.039062 10.851562 88.03125 11.582031 L 87.425781 67.96875 C 87.417969 68.691406 86.828125 69.273438 86.109375 69.273438 " fill-opacity="1" fill-rule="nonzero"/><path fill="#ffffff" d="M 32.832031 57.582031 C 32.242188 57.582031 31.703125 57.179688 31.554688 56.574219 L 30.117188 50.699219 L 30.117188 50.539062 C 30.117188 49.8125 30.707031 49.214844 31.4375 49.214844 C 32.078125 49.214844 32.613281 49.675781 32.730469 50.28125 L 34.113281 55.945312 C 34.285156 56.65625 33.855469 57.371094 33.148438 57.542969 C 33.042969 57.570312 32.9375 57.582031 32.832031 57.582031 " fill-opacity="1" fill-rule="nonzero"/><path fill="#ffffff" d="M 42.683594 65.652344 C 41.957031 65.652344 41.367188 65.0625 41.367188 64.332031 L 41.367188 64.324219 C 41.367188 63.597656 41.957031 63.003906 42.683594 63.003906 C 43.414062 63.003906 44 63.597656 44 64.324219 C 44 65.058594 43.414062 65.652344 42.683594 65.652344 " fill-opacity="1" fill-rule="nonzero"/><path fill="#ffffff" d="M 41.390625 58.945312 C 40.730469 58.945312 40.179688 58.457031 40.085938 57.820312 L 38.746094 50.878906 C 38.605469 50.160156 39.070312 49.464844 39.789062 49.328125 C 40.496094 49.1875 41.191406 49.65625 41.332031 50.375 L 42.707031 57.617188 C 42.707031 58.351562 42.117188 58.945312 41.390625 58.945312 " fill-opacity="1" fill-rule="nonzero"/><path fill="#ffffff" d="M 98.199219 31.289062 C 97.757812 31.289062 97.332031 31.070312 97.078125 30.667969 C 96.695312 30.050781 96.882812 29.234375 97.5 28.847656 L 103.140625 25.316406 C 103.757812 24.929688 104.570312 25.117188 104.957031 25.738281 C 105.339844 26.359375 105.152344 27.171875 104.535156 27.558594 L 98.894531 31.089844 C 98.679688 31.226562 98.4375 31.289062 98.199219 31.289062 " fill-opacity="1" fill-rule="nonzero"/><path fill="#ffffff" d="M 103.546875 54.777344 C 103.300781 54.777344 103.050781 54.707031 102.828125 54.558594 L 97.265625 50.90625 C 96.65625 50.507812 96.484375 49.6875 96.882812 49.074219 C 97.28125 48.464844 98.097656 48.296875 98.707031 48.695312 L 104.269531 52.34375 C 104.878906 52.746094 105.050781 53.566406 104.652344 54.175781 C 104.398438 54.5625 103.976562 54.777344 103.546875 54.777344 " fill-opacity="1" fill-rule="nonzero"/><g clip-path="url(#eb94f96fd0)"><path fill="#ffffff" d="M 105.871094 41.292969 C 105.867188 41.292969 105.859375 41.292969 105.855469 41.292969 L 98.078125 41.207031 C 97.351562 41.199219 96.769531 40.601562 96.773438 39.871094 C 96.785156 39.144531 97.371094 38.5625 98.089844 38.5625 C 98.097656 38.5625 98.101562 38.5625 98.105469 38.5625 L 105.882812 38.648438 C 106.613281 38.65625 107.195312 39.253906 107.1875 39.984375 C 107.179688 40.707031 106.589844 41.292969 105.871094 41.292969 " fill-opacity="1" fill-rule="nonzero"/></g><path fill="#ffffff" d="M 30.140625 65.664062 C 30.148438 65.675781 30.15625 65.6875 30.160156 65.699219 Z M 24.652344 82.691406 C 24.15625 82.691406 23.679688 82.402344 23.457031 81.917969 C 23.152344 81.253906 23.445312 80.46875 24.105469 80.164062 C 31.78125 76.628906 31.292969 70.277344 29.527344 65.574219 C 29.246094 64.820312 29.554688 64.003906 30.261719 63.632812 C 30.96875 63.257812 31.8125 63.460938 32.277344 64.117188 L 34.652344 67.359375 C 35.246094 68.160156 36.335938 68.464844 37.25 68.074219 C 37.398438 68.011719 37.535156 67.9375 37.683594 67.839844 C 38.167969 67.496094 38.492188 66.972656 38.574219 66.367188 C 38.664062 65.757812 38.5 65.152344 38.105469 64.667969 L 32.511719 57.742188 C 32.171875 57.316406 31.683594 57.054688 31.140625 57 C 30.597656 56.949219 30.0625 57.109375 29.640625 57.460938 L 25.160156 61.1875 C 23.617188 62.46875 22.351562 64.046875 21.398438 65.878906 C 20.464844 67.679688 19.910156 69.628906 19.757812 71.667969 C 19.601562 73.722656 19.097656 75.707031 18.261719 77.570312 C 17.964844 78.238281 17.183594 78.535156 16.519531 78.234375 C 15.855469 77.9375 15.5625 77.152344 15.859375 76.484375 C 16.570312 74.902344 17 73.210938 17.128906 71.46875 C 17.3125 69.066406 17.964844 66.78125 19.066406 64.660156 C 20.179688 62.511719 21.667969 60.660156 23.480469 59.152344 L 27.960938 55.421875 C 28.929688 54.617188 30.148438 54.242188 31.398438 54.367188 C 32.644531 54.492188 33.769531 55.097656 34.558594 56.070312 L 40.15625 63.007812 C 41 64.054688 41.371094 65.414062 41.183594 66.742188 C 40.996094 68.0625 40.265625 69.253906 39.175781 70.015625 C 38.875 70.222656 38.585938 70.382812 38.273438 70.511719 C 36.507812 71.261719 34.519531 70.886719 33.152344 69.621094 C 33.53125 73.917969 32.296875 79.300781 25.203125 82.570312 C 25.023438 82.648438 24.839844 82.691406 24.652344 82.691406 " fill-opacity="1" fill-rule="nonzero"/><path fill="#ffffff" d="M 27.65625 95.511719 C 27.261719 95.511719 26.867188 95.332031 26.609375 94.992188 C 26.167969 94.410156 26.28125 93.582031 26.859375 93.136719 L 29.777344 90.898438 C 31.886719 89.292969 34.382812 88.335938 37 88.125 C 38.191406 88.019531 39.347656 87.734375 40.429688 87.273438 C 40.992188 87.035156 41.582031 86.71875 42.171875 86.335938 L 47.007812 83.164062 C 47.617188 82.761719 48.433594 82.9375 48.832031 83.546875 C 49.230469 84.15625 49.058594 84.976562 48.449219 85.375 L 43.609375 88.550781 C 42.882812 89.023438 42.160156 89.414062 41.453125 89.710938 C 40.117188 90.277344 38.695312 90.628906 37.222656 90.757812 C 35.097656 90.929688 33.078125 91.707031 31.375 93.003906 L 28.457031 95.238281 C 28.21875 95.421875 27.9375 95.511719 27.65625 95.511719 " fill-opacity="1" fill-rule="nonzero"/><path fill="#ffffff" d="M 47.851562 85.683594 C 47.730469 85.683594 47.609375 85.679688 47.492188 85.671875 C 46.011719 85.585938 44.65625 84.734375 43.886719 83.402344 L 43.503906 82.746094 C 42.453125 80.933594 42.761719 78.644531 44.257812 77.175781 C 44.777344 76.664062 45.613281 76.675781 46.121094 77.199219 C 46.632812 77.71875 46.621094 78.558594 46.101562 79.066406 C 45.46875 79.6875 45.335938 80.652344 45.777344 81.410156 L 46.164062 82.070312 C 46.496094 82.648438 47.046875 82.996094 47.675781 83.03125 C 48.113281 83.066406 48.523438 82.957031 48.886719 82.722656 L 54.644531 78.949219 C 55.511719 78.378906 55.765625 77.226562 55.222656 76.335938 L 54.898438 75.796875 C 54.523438 75.1875 53.839844 74.84375 53.113281 74.898438 C 52.390625 74.96875 51.753906 74.417969 51.695312 73.691406 C 51.636719 72.960938 52.171875 72.324219 52.898438 72.265625 C 54.613281 72.117188 56.242188 72.949219 57.144531 74.417969 L 57.46875 74.957031 C 58.761719 77.0625 58.15625 79.792969 56.089844 81.160156 L 50.320312 84.941406 C 49.566406 85.429688 48.71875 85.683594 47.851562 85.683594 " fill-opacity="1" fill-rule="nonzero"/><path fill="#ffffff" d="M 50.492188 68.695312 C 50.179688 68.695312 49.867188 68.773438 49.578125 68.929688 L 41.613281 73.265625 C 41.15625 73.515625 40.824219 73.929688 40.683594 74.433594 C 40.539062 74.9375 40.609375 75.464844 40.867188 75.917969 L 41.28125 76.632812 C 41.808594 77.546875 42.976562 77.863281 43.886719 77.347656 L 51.777344 72.855469 C 52.234375 72.59375 52.558594 72.167969 52.691406 71.660156 C 52.820312 71.148438 52.742188 70.621094 52.464844 70.171875 L 52.125 69.613281 C 51.765625 69.027344 51.136719 68.695312 50.492188 68.695312 Z M 42.953125 80.238281 C 41.378906 80.238281 39.839844 79.417969 39 77.957031 L 38.589844 77.242188 C 37.96875 76.164062 37.8125 74.910156 38.148438 73.714844 C 38.484375 72.519531 39.269531 71.53125 40.359375 70.941406 L 48.320312 66.605469 C 50.449219 65.449219 53.105469 66.164062 54.371094 68.230469 L 54.710938 68.785156 C 55.363281 69.851562 55.554688 71.109375 55.242188 72.320312 C 54.929688 73.53125 54.160156 74.539062 53.078125 75.15625 L 45.1875 79.648438 C 44.484375 80.046875 43.714844 80.238281 42.953125 80.238281 " fill-opacity="1" fill-rule="nonzero"/><path fill="#ffffff" d="M 50.082031 68.722656 C 49.792969 68.722656 49.503906 68.628906 49.257812 68.429688 C 48.691406 67.972656 48.601562 67.140625 49.058594 66.574219 C 49.570312 65.929688 49.621094 65.027344 49.171875 64.332031 L 49.101562 64.210938 C 48.609375 63.511719 47.683594 63.226562 46.863281 63.539062 C 46.730469 63.585938 46.660156 63.632812 46.59375 63.667969 L 42.953125 65.695312 L 40.53125 67 C 39.886719 67.34375 39.089844 67.105469 38.746094 66.460938 C 38.402344 65.820312 38.640625 65.019531 39.28125 64.671875 L 41.6875 63.371094 L 45.339844 61.339844 C 45.535156 61.238281 45.734375 61.132812 45.984375 61.050781 C 47.933594 60.296875 50.234375 61.054688 51.382812 62.875 L 51.457031 63.007812 C 52.441406 64.652344 52.308594 66.734375 51.109375 68.230469 C 50.851562 68.554688 50.46875 68.722656 50.082031 68.722656 " fill-opacity="1" fill-rule="nonzero"/><path fill="#ffffff" d="M 46.394531 63.628906 C 45.964844 63.628906 45.542969 63.417969 45.289062 63.03125 C 44.890625 62.417969 45.0625 61.597656 45.675781 61.199219 C 46.171875 60.875 46.519531 60.378906 46.628906 59.84375 C 46.691406 59.53125 46.707031 59.070312 46.421875 58.605469 L 46.351562 58.511719 C 45.789062 57.644531 44.535156 57.410156 43.492188 57.976562 L 36.972656 61.542969 C 36.332031 61.894531 35.535156 61.660156 35.183594 61.019531 C 34.835938 60.378906 35.070312 59.574219 35.710938 59.222656 L 42.234375 55.652344 C 44.445312 54.453125 47.175781 55.039062 48.5 56.980469 L 48.574219 57.082031 C 49.21875 58.050781 49.445312 59.21875 49.210938 60.375 C 48.960938 61.597656 48.195312 62.707031 47.113281 63.414062 C 46.890625 63.558594 46.640625 63.628906 46.394531 63.628906 " fill-opacity="1" fill-rule="nonzero"/><g clip-path="url(#f4a41a2ae3)"><path fill="#ffffff" d="M 27.503906 95.996094 L 27.511719 95.996094 Z M 16.191406 77.546875 L 7.4375 82.957031 L 18.058594 100.28125 L 26.816406 94.871094 Z M 18.0625 102.925781 C 17.855469 102.925781 17.648438 102.902344 17.445312 102.851562 C 16.761719 102.6875 16.179688 102.265625 15.8125 101.664062 L 5.191406 84.34375 C 4.429688 83.101562 4.816406 81.46875 6.054688 80.707031 L 14.808594 75.296875 C 15.410156 74.925781 16.117188 74.8125 16.800781 74.972656 C 17.484375 75.140625 18.0625 75.558594 18.433594 76.160156 L 29.054688 93.484375 C 29.820312 94.726562 29.429688 96.355469 28.195312 97.121094 L 19.4375 102.53125 C 19.015625 102.789062 18.542969 102.925781 18.0625 102.925781 " fill-opacity="1" fill-rule="nonzero"/></g></svg>