<svg xmlns="http://www.w3.org/2000/svg" xmlns:xlink="http://www.w3.org/1999/xlink" width="149" zoomAndPan="magnify" viewBox="0 0 111.75 110.999996" height="148" preserveAspectRatio="xMidYMid meet" version="1.0"><defs><clipPath id="c6f59b8b75"><path d="M 0 63 L 81 63 L 81 106.828125 L 0 106.828125 Z M 0 63 " clip-rule="nonzero"/></clipPath><clipPath id="84b6e88ad7"><path d="M 30 4.078125 L 111.5 4.078125 L 111.5 48 L 30 48 Z M 30 4.078125 " clip-rule="nonzero"/></clipPath></defs><g clip-path="url(#c6f59b8b75)"><path fill="#ffffff" d="M 1.761719 98.214844 C 0.800781 98.214844 0.015625 99 0.015625 99.957031 C 0.015625 100.914062 0.800781 101.695312 1.761719 101.695312 L 10.925781 101.695312 C 12.671875 101.695312 13.980469 100.390625 13.980469 98.738281 L 13.980469 96.300781 C 14.242188 96.390625 14.503906 96.476562 14.851562 96.5625 L 42.695312 106.65625 C 42.695312 106.65625 42.78125 106.65625 42.78125 106.65625 C 43.21875 106.828125 43.742188 106.828125 44.179688 106.828125 C 45.402344 106.828125 46.625 106.394531 47.582031 105.609375 L 78.132812 80.292969 C 81.097656 77.769531 81.621094 73.160156 79.351562 70.113281 C 78.132812 68.546875 76.472656 67.589844 74.464844 67.328125 C 72.546875 67.15625 70.710938 67.679688 69.230469 68.984375 L 55.4375 80.902344 C 55.960938 82.121094 56.222656 83.425781 56.222656 84.816406 L 71.410156 71.765625 C 72.109375 71.15625 73.070312 70.808594 74.03125 70.898438 C 74.988281 70.984375 75.863281 71.507812 76.472656 72.289062 C 77.695312 73.941406 77.347656 76.378906 75.773438 77.683594 L 45.226562 103 C 44.789062 103.347656 44.265625 103.523438 43.742188 103.347656 L 16.164062 93.34375 L 15.8125 93.257812 C 15.203125 93.082031 14.589844 92.820312 13.894531 92.734375 L 13.894531 72.898438 L 16.164062 71.507812 C 16.25 71.417969 16.335938 71.417969 16.425781 71.417969 C 17.296875 71.070312 17.734375 71.070312 18.167969 71.15625 L 44.265625 80.03125 C 44.355469 80.03125 44.355469 80.03125 44.441406 80.121094 C 46.972656 80.640625 49.15625 82.816406 49.15625 84.816406 C 49.15625 86.121094 48.628906 87.339844 47.671875 88.210938 C 46.796875 88.992188 45.75 89.339844 44.617188 89.167969 L 28.554688 84.121094 C 27.597656 83.859375 26.636719 84.382812 26.375 85.253906 C 26.113281 86.210938 26.636719 87.167969 27.507812 87.425781 L 43.742188 92.472656 C 43.832031 92.472656 43.917969 92.5625 44.003906 92.5625 C 44.355469 92.648438 44.703125 92.648438 45.050781 92.648438 C 46.886719 92.648438 48.628906 91.953125 50.027344 90.820312 C 51.773438 89.339844 52.734375 87.167969 52.734375 84.816406 C 52.734375 80.816406 49.066406 77.507812 45.402344 76.726562 L 19.304688 67.765625 C 19.21875 67.765625 19.128906 67.679688 19.042969 67.679688 C 17.996094 67.503906 16.773438 67.417969 14.765625 68.285156 C 14.765625 68.285156 14.679688 68.285156 14.679688 68.285156 C 14.589844 68.285156 14.589844 68.375 14.503906 68.375 L 13.980469 68.722656 L 13.980469 66.371094 C 13.980469 64.71875 12.582031 63.414062 10.925781 63.414062 L 1.761719 63.414062 C 0.800781 63.414062 0.015625 64.199219 0.015625 65.15625 C 0.015625 66.113281 0.800781 66.894531 1.761719 66.894531 L 10.488281 66.894531 L 10.488281 98.214844 Z M 1.761719 98.214844 " fill-opacity="1" fill-rule="nonzero"/></g><g clip-path="url(#84b6e88ad7)"><path fill="#ffffff" d="M 109.988281 12.953125 C 110.949219 12.953125 111.734375 12.171875 111.734375 11.214844 C 111.734375 10.257812 110.949219 9.472656 109.988281 9.472656 L 100.824219 9.472656 C 99.078125 9.472656 97.769531 10.777344 97.769531 12.429688 L 97.769531 14.867188 C 97.507812 14.78125 97.246094 14.695312 96.898438 14.605469 L 69.054688 4.515625 C 69.054688 4.515625 68.96875 4.515625 68.96875 4.515625 C 67.308594 4.078125 65.476562 4.425781 64.167969 5.558594 L 33.617188 30.875 C 30.652344 33.398438 30.128906 38.011719 32.398438 41.054688 C 33.355469 42.359375 34.664062 43.230469 36.148438 43.578125 C 36.238281 42.359375 36.671875 41.230469 37.457031 40.273438 C 36.5 40.183594 35.714844 39.664062 35.101562 38.878906 C 33.878906 37.226562 34.230469 34.792969 35.800781 33.484375 L 43.132812 27.394531 C 43.832031 26.613281 44.617188 26.003906 45.488281 25.480469 L 66.4375 8.167969 C 66.871094 7.820312 67.394531 7.644531 67.917969 7.820312 L 95.5 17.824219 L 95.847656 17.914062 C 96.460938 18.085938 97.070312 18.347656 97.769531 18.433594 L 97.769531 38.269531 L 95.5 39.664062 C 95.414062 39.664062 95.324219 39.75 95.238281 39.75 C 95.238281 39.75 95.152344 39.75 95.152344 39.75 C 95.0625 39.835938 94.976562 39.835938 94.800781 39.835938 C 94.714844 39.835938 94.628906 39.925781 94.539062 39.925781 C 94.367188 40.011719 94.191406 40.011719 94.015625 40.011719 C 93.929688 40.011719 93.84375 40.011719 93.84375 40.011719 C 93.667969 40.011719 93.582031 40.011719 93.40625 39.925781 L 67.308594 31.136719 C 67.222656 31.136719 67.222656 31.136719 67.132812 31.050781 C 64.601562 30.527344 62.421875 28.351562 62.421875 26.351562 C 62.421875 25.046875 62.945312 23.828125 63.90625 22.957031 C 64.777344 22.175781 65.824219 21.828125 66.960938 22 L 83.019531 27.046875 C 83.980469 27.308594 84.9375 26.785156 85.203125 25.917969 C 85.464844 24.960938 84.9375 24.003906 84.066406 23.742188 L 67.832031 18.695312 C 67.746094 18.695312 67.65625 18.609375 67.570312 18.609375 C 65.476562 18.347656 63.292969 18.957031 61.636719 20.4375 C 59.890625 21.914062 58.929688 24.089844 58.929688 26.4375 C 58.929688 30.441406 62.59375 33.746094 66.261719 34.53125 L 92.445312 43.40625 C 92.53125 43.40625 92.621094 43.492188 92.707031 43.492188 C 93.144531 43.578125 93.492188 43.578125 94.015625 43.578125 C 94.800781 43.578125 95.761719 43.40625 96.984375 42.882812 C 96.984375 42.882812 97.070312 42.882812 97.070312 42.796875 C 97.160156 42.796875 97.160156 42.707031 97.246094 42.707031 L 97.769531 42.359375 L 97.769531 44.710938 C 97.769531 46.363281 99.167969 47.667969 100.824219 47.667969 L 109.988281 47.667969 C 110.949219 47.667969 111.734375 46.882812 111.734375 45.925781 C 111.734375 44.96875 110.949219 44.1875 109.988281 44.1875 L 101.261719 44.1875 L 101.261719 12.953125 Z M 109.988281 12.953125 " fill-opacity="1" fill-rule="nonzero"/></g><path fill="#ffffff" d="M 38.332031 54.976562 C 37.894531 56.714844 38.070312 58.457031 39.03125 60.023438 C 40.863281 63.242188 44.964844 64.285156 48.195312 62.457031 C 48.71875 62.109375 49.242188 61.761719 49.679688 61.328125 L 52.90625 66.980469 C 53.167969 67.417969 53.519531 67.679688 53.953125 67.765625 C 54.128906 67.765625 54.214844 67.851562 54.390625 67.851562 C 54.652344 67.851562 55.003906 67.765625 55.265625 67.589844 L 63.730469 62.71875 C 64.339844 62.371094 64.777344 61.675781 64.601562 60.890625 C 64.515625 60.195312 63.90625 59.585938 63.207031 59.414062 C 62.332031 59.238281 61.546875 58.714844 61.113281 57.847656 C 60.238281 56.367188 60.761719 54.367188 62.246094 53.496094 C 62.945312 53.0625 63.816406 52.976562 64.691406 53.148438 C 65.476562 53.410156 66.175781 53.933594 66.609375 54.628906 C 67.046875 55.324219 67.132812 56.195312 66.960938 56.976562 C 66.699219 57.5 66.699219 58.109375 67.046875 58.628906 C 67.570312 59.414062 68.617188 59.761719 69.402344 59.238281 L 77.78125 54.367188 C 78.21875 54.105469 78.480469 53.757812 78.566406 53.324219 C 78.65625 52.886719 78.65625 52.367188 78.394531 52.019531 L 71.238281 39.578125 L 66.175781 37.835938 L 74.464844 52.191406 L 70.277344 54.628906 C 70.101562 54.019531 69.925781 53.410156 69.578125 52.800781 C 67.746094 49.582031 63.644531 48.539062 60.5 50.363281 C 57.269531 52.191406 56.222656 56.28125 58.058594 59.414062 C 58.40625 60.023438 58.84375 60.542969 59.277344 60.980469 L 55.003906 63.675781 L 51.160156 56.976562 C 50.8125 56.453125 50.289062 56.105469 49.679688 56.105469 C 49.589844 56.105469 49.503906 56.105469 49.417969 56.105469 C 48.71875 56.195312 48.105469 56.714844 47.933594 57.410156 C 47.757812 58.28125 47.148438 58.976562 46.449219 59.414062 C 44.878906 60.28125 42.957031 59.761719 42.085938 58.28125 C 41.648438 57.585938 41.5625 56.714844 41.734375 55.847656 C 41.996094 55.0625 42.519531 54.367188 43.21875 53.933594 C 44.003906 53.496094 44.878906 53.410156 45.664062 53.582031 C 46.363281 53.757812 47.058594 53.496094 47.496094 52.976562 C 47.933594 52.453125 48.019531 51.667969 47.671875 51.0625 L 43.832031 44.363281 L 50.726562 40.359375 C 51.335938 40.011719 51.683594 39.316406 51.597656 38.53125 C 51.511719 37.835938 50.898438 37.226562 50.203125 37.140625 C 49.328125 36.964844 48.542969 36.445312 48.105469 35.660156 C 47.234375 34.183594 47.757812 32.179688 49.328125 31.3125 C 50.898438 30.441406 52.820312 30.964844 53.691406 32.441406 C 54.128906 33.226562 54.214844 34.183594 53.953125 35.050781 C 53.691406 35.75 53.953125 36.53125 54.476562 36.964844 C 55.003906 37.402344 55.789062 37.488281 56.484375 37.140625 L 60.0625 35.140625 C 59.105469 34.355469 58.320312 33.484375 57.621094 32.527344 L 57.445312 32.617188 C 57.445312 32.441406 57.359375 32.269531 57.269531 32.09375 C 56.921875 31.484375 56.574219 30.875 56.3125 30.265625 C 55.789062 29.050781 55.527344 27.742188 55.527344 26.4375 L 53.605469 28.09375 C 51.683594 27.222656 49.503906 27.308594 47.582031 28.441406 C 44.355469 30.265625 43.304688 34.355469 45.140625 37.574219 C 45.488281 38.183594 45.925781 38.707031 46.363281 39.140625 L 40.6875 42.449219 C 39.816406 42.96875 39.554688 44.011719 40.078125 44.796875 L 43.304688 50.453125 C 42.695312 50.625 42.171875 50.800781 41.648438 51.148438 C 39.902344 51.757812 38.855469 53.234375 38.332031 54.976562 Z M 38.332031 54.976562 " fill-opacity="1" fill-rule="nonzero"/></svg>