<svg xmlns="http://www.w3.org/2000/svg" xmlns:xlink="http://www.w3.org/1999/xlink" width="149" zoomAndPan="magnify" viewBox="0 0 111.75 110.999996" height="148" preserveAspectRatio="xMidYMid meet" version="1.0"><defs><clipPath id="190c139b81"><path d="M 7 6.332031 L 104.832031 6.332031 L 104.832031 104 L 7 104 Z M 7 6.332031 " clip-rule="nonzero"/></clipPath></defs><g clip-path="url(#190c139b81)"><path fill="#ffffff" d="M 58.820312 6.765625 C 51.460938 6.324219 44.347656 7.480469 37.644531 10.191406 C 37.003906 10.441406 36.597656 11.070312 36.597656 11.785156 C 36.597656 12.082031 36.65625 12.351562 36.785156 12.597656 C 37.210938 13.398438 38.152344 13.738281 38.980469 13.398438 C 45.210938 10.871094 51.832031 9.804688 58.683594 10.230469 C 80.773438 11.621094 98.789062 29.273438 100.613281 51.285156 C 101.707031 64.515625 96.976562 77.480469 87.636719 86.851562 C 78.292969 96.226562 65.335938 100.988281 52.109375 99.941406 C 30.765625 98.226562 13.109375 80.875 11.035156 59.589844 C 9.902344 47.832031 13.292969 36.320312 20.589844 27.15625 C 20.894531 26.773438 21.355469 26.535156 21.839844 26.507812 C 22.355469 26.480469 22.8125 26.664062 23.164062 27.015625 L 25.15625 29.007812 L 26.378906 18.746094 L 16.109375 20.042969 L 18.238281 22.070312 C 18.867188 22.695312 18.914062 23.695312 18.347656 24.386719 C 10.441406 34.023438 6.582031 46.222656 7.488281 58.757812 C 9.191406 82.183594 28.117188 101.359375 51.515625 103.359375 C 65.402344 104.535156 79.125 99.765625 89.160156 90.230469 C 99.1875 80.699219 104.671875 67.292969 104.199219 53.441406 C 103.363281 28.773438 83.429688 8.265625 58.820312 6.765625 " fill-opacity="1" fill-rule="nonzero"/></g><path fill="#ffffff" d="M 55.328125 32.691406 L 37.8125 37.792969 L 55.792969 42.933594 L 73.773438 37.792969 L 56.257812 32.691406 C 55.957031 32.601562 55.632812 32.601562 55.328125 32.691406 " fill-opacity="1" fill-rule="nonzero"/><path fill="#ffffff" d="M 48.582031 56.136719 C 48.0625 56.136719 47.542969 56.054688 47.03125 55.90625 L 33.304688 51.824219 L 33.304688 72.90625 L 54.0625 78.828125 L 54.0625 51.832031 L 53.3125 53.285156 C 52.386719 55.070312 50.542969 56.128906 48.582031 56.136719 " fill-opacity="1" fill-rule="nonzero"/><path fill="#ffffff" d="M 81.558594 46.671875 C 81.753906 46.292969 81.792969 45.867188 81.671875 45.46875 L 79.0625 39.878906 L 58.300781 45.8125 L 61.347656 51.691406 C 61.746094 52.46875 62.699219 52.847656 63.570312 52.589844 L 80.449219 47.574219 C 80.9375 47.425781 81.335938 47.109375 81.558594 46.671875 " fill-opacity="1" fill-rule="nonzero"/><path fill="#ffffff" d="M 58.273438 53.285156 L 57.523438 51.832031 L 57.523438 78.832031 L 78.273438 72.90625 L 78.28125 51.824219 L 64.558594 55.90625 C 64.042969 56.054688 63.523438 56.128906 63.003906 56.128906 C 61.042969 56.128906 59.199219 55.070312 58.273438 53.285156 " fill-opacity="1" fill-rule="nonzero"/><path fill="#ffffff" d="M 29.914062 45.46875 C 29.792969 45.867188 29.832031 46.292969 30.03125 46.671875 C 30.253906 47.109375 30.652344 47.425781 31.136719 47.574219 L 48.015625 52.589844 C 48.882812 52.851562 49.839844 52.460938 50.238281 51.699219 L 53.285156 45.8125 L 32.523438 39.878906 L 29.914062 45.46875 " fill-opacity="1" fill-rule="nonzero"/></svg>