<svg xmlns="http://www.w3.org/2000/svg" xmlns:xlink="http://www.w3.org/1999/xlink" width="149" zoomAndPan="magnify" viewBox="0 0 111.75 110.999996" height="148" preserveAspectRatio="xMidYMid meet" version="1.0"><defs><clipPath id="d494c9667c"><path d="M 63 99 L 64.738281 99 L 64.738281 102.679688 L 63 102.679688 Z M 63 99 " clip-rule="nonzero"/></clipPath><clipPath id="58716a9568"><path d="M 108.300781 29.316406 L 111.5 29.316406 L 111.5 30.519531 L 108.300781 30.519531 Z M 108.300781 29.316406 " clip-rule="nonzero"/></clipPath><clipPath id="f040120f11"><path d="M 30 8.199219 L 32 8.199219 L 32 13 L 30 13 Z M 30 8.199219 " clip-rule="nonzero"/></clipPath></defs><path fill="#ffffff" d="M 98.277344 57.835938 L 12.714844 65.429688 L 9.867188 33.5625 L 95.425781 25.96875 L 98.277344 57.835938 " fill-opacity="1" fill-rule="nonzero"/><path fill="#ffffff" d="M 22.023438 84.132812 C 18.316406 84.132812 15.300781 87.132812 15.300781 90.828125 C 15.300781 94.523438 18.316406 97.527344 22.023438 97.527344 C 25.730469 97.527344 28.75 94.523438 28.75 90.828125 C 28.75 87.132812 25.730469 84.132812 22.023438 84.132812 Z M 22.023438 98.003906 C 18.054688 98.003906 14.824219 94.785156 14.824219 90.828125 C 14.824219 86.871094 18.054688 83.65625 22.023438 83.65625 C 25.996094 83.65625 29.222656 86.871094 29.222656 90.828125 C 29.222656 94.785156 25.996094 98.003906 22.023438 98.003906 " fill-opacity="1" fill-rule="nonzero"/><path fill="#ffffff" d="M 78.871094 15.027344 C 78.871094 12.933594 80.574219 11.230469 82.679688 11.230469 C 84.78125 11.230469 86.488281 12.933594 86.488281 15.027344 C 86.488281 17.125 84.78125 18.824219 82.679688 18.824219 C 80.574219 18.824219 78.871094 17.125 78.871094 15.027344 " fill-opacity="1" fill-rule="nonzero"/><path fill="#ffffff" d="M 63.898438 96.472656 C 63.636719 96.472656 63.421875 96.261719 63.421875 95.996094 L 63.421875 93.332031 C 63.421875 93.066406 63.636719 92.855469 63.898438 92.855469 C 64.160156 92.855469 64.378906 93.066406 64.378906 93.332031 L 64.378906 95.996094 C 64.378906 96.261719 64.160156 96.472656 63.898438 96.472656 " fill-opacity="1" fill-rule="nonzero"/><g clip-path="url(#d494c9667c)"><path fill="#ffffff" d="M 63.898438 102.679688 C 63.636719 102.679688 63.421875 102.46875 63.421875 102.203125 L 63.421875 99.539062 C 63.421875 99.273438 63.636719 99.0625 63.898438 99.0625 C 64.160156 99.0625 64.378906 99.273438 64.378906 99.539062 L 64.378906 102.203125 C 64.378906 102.46875 64.160156 102.679688 63.898438 102.679688 " fill-opacity="1" fill-rule="nonzero"/></g><path fill="#ffffff" d="M 62.121094 98.242188 L 59.445312 98.242188 C 59.183594 98.242188 58.96875 98.03125 58.96875 97.765625 C 58.96875 97.503906 59.183594 97.292969 59.445312 97.292969 L 62.121094 97.292969 C 62.386719 97.292969 62.601562 97.503906 62.601562 97.765625 C 62.601562 98.03125 62.386719 98.242188 62.121094 98.242188 " fill-opacity="1" fill-rule="nonzero"/><path fill="#ffffff" d="M 68.351562 98.242188 L 65.675781 98.242188 C 65.414062 98.242188 65.199219 98.03125 65.199219 97.765625 C 65.199219 97.503906 65.414062 97.292969 65.675781 97.292969 L 68.351562 97.292969 C 68.613281 97.292969 68.828125 97.503906 68.828125 97.765625 C 68.828125 98.03125 68.613281 98.242188 68.351562 98.242188 " fill-opacity="1" fill-rule="nonzero"/><path fill="#ffffff" d="M 82.160156 84.347656 L 15.902344 76.40625 L 18.46875 55.136719 L 84.730469 63.078125 L 82.160156 84.347656 " fill-opacity="1" fill-rule="nonzero"/><path fill="#ffffff" d="M 7.699219 20.742188 C 5.195312 20.742188 3.164062 22.769531 3.164062 25.261719 C 3.164062 27.753906 5.195312 29.78125 7.699219 29.78125 C 10.199219 29.78125 12.234375 27.753906 12.234375 25.261719 C 12.234375 22.769531 10.199219 20.742188 7.699219 20.742188 Z M 7.699219 30.257812 C 4.933594 30.257812 2.6875 28.019531 2.6875 25.261719 C 2.6875 22.511719 4.933594 20.269531 7.699219 20.269531 C 10.460938 20.269531 12.710938 22.511719 12.710938 25.261719 C 12.710938 28.019531 10.460938 30.257812 7.699219 30.257812 " fill-opacity="1" fill-rule="nonzero"/><path fill="#ffffff" d="M 96.722656 63.558594 C 93.015625 63.558594 90 66.5625 90 70.257812 C 90 73.949219 93.015625 76.957031 96.722656 76.957031 C 100.429688 76.957031 103.445312 73.949219 103.445312 70.257812 C 103.445312 66.5625 100.429688 63.558594 96.722656 63.558594 Z M 96.722656 77.433594 C 92.753906 77.433594 89.523438 74.210938 89.523438 70.257812 C 89.523438 66.300781 92.753906 63.082031 96.722656 63.082031 C 100.695312 63.082031 103.925781 66.300781 103.925781 70.257812 C 103.925781 74.210938 100.695312 77.433594 96.722656 77.433594 " fill-opacity="1" fill-rule="nonzero"/><path fill="#ffffff" d="M 0 74.980469 C 0 73.371094 1.308594 72.066406 2.925781 72.066406 C 4.539062 72.066406 5.847656 73.371094 5.847656 74.980469 C 5.847656 76.589844 4.539062 77.894531 2.925781 77.894531 C 1.308594 77.894531 0 76.589844 0 74.980469 " fill-opacity="1" fill-rule="nonzero"/><path fill="#ffffff" d="M 89.761719 87.917969 C 89.761719 86.304688 91.070312 85 92.6875 85 C 94.300781 85 95.613281 86.304688 95.613281 87.917969 C 95.613281 89.523438 94.300781 90.828125 92.6875 90.828125 C 91.070312 90.828125 89.761719 89.523438 89.761719 87.917969 " fill-opacity="1" fill-rule="nonzero"/><path fill="#ffffff" d="M 108.136719 29.257812 C 107.875 29.257812 107.660156 29.042969 107.660156 28.78125 L 107.660156 26.914062 C 107.660156 26.65625 107.875 26.441406 108.136719 26.441406 C 108.402344 26.441406 108.617188 26.65625 108.617188 26.914062 L 108.617188 28.78125 C 108.617188 29.042969 108.402344 29.257812 108.136719 29.257812 " fill-opacity="1" fill-rule="nonzero"/><path fill="#ffffff" d="M 108.136719 33.597656 C 107.875 33.597656 107.660156 33.386719 107.660156 33.125 L 107.660156 31.261719 C 107.660156 30.996094 107.875 30.785156 108.136719 30.785156 C 108.402344 30.785156 108.617188 30.996094 108.617188 31.261719 L 108.617188 33.125 C 108.617188 33.386719 108.402344 33.597656 108.136719 33.597656 " fill-opacity="1" fill-rule="nonzero"/><path fill="#ffffff" d="M 106.894531 30.496094 L 105.023438 30.496094 C 104.757812 30.496094 104.546875 30.285156 104.546875 30.023438 C 104.546875 29.757812 104.757812 29.546875 105.023438 29.546875 L 106.894531 29.546875 C 107.15625 29.546875 107.371094 29.757812 107.371094 30.023438 C 107.371094 30.285156 107.15625 30.496094 106.894531 30.496094 " fill-opacity="1" fill-rule="nonzero"/><g clip-path="url(#58716a9568)"><path fill="#ffffff" d="M 111.253906 30.496094 L 109.382812 30.496094 C 109.117188 30.496094 108.902344 30.285156 108.902344 30.023438 C 108.902344 29.757812 109.117188 29.546875 109.382812 29.546875 L 111.253906 29.546875 C 111.515625 29.546875 111.726562 29.757812 111.726562 30.023438 C 111.726562 30.285156 111.515625 30.496094 111.253906 30.496094 " fill-opacity="1" fill-rule="nonzero"/></g><g clip-path="url(#f040120f11)"><path fill="#ffffff" d="M 30.945312 12.992188 C 30.683594 12.992188 30.46875 12.777344 30.46875 12.515625 L 30.46875 8.6875 C 30.46875 8.425781 30.683594 8.214844 30.945312 8.214844 C 31.210938 8.214844 31.425781 8.425781 31.425781 8.6875 L 31.425781 12.515625 C 31.425781 12.777344 31.210938 12.992188 30.945312 12.992188 " fill-opacity="1" fill-rule="nonzero"/></g><path fill="#ffffff" d="M 30.945312 21.902344 C 30.683594 21.902344 30.46875 21.691406 30.46875 21.425781 L 30.46875 17.601562 C 30.46875 17.339844 30.683594 17.125 30.945312 17.125 C 31.210938 17.125 31.425781 17.339844 31.425781 17.601562 L 31.425781 21.425781 C 31.425781 21.691406 31.210938 21.902344 30.945312 21.902344 " fill-opacity="1" fill-rule="nonzero"/><path fill="#ffffff" d="M 28.394531 15.535156 L 24.554688 15.535156 C 24.292969 15.535156 24.078125 15.320312 24.078125 15.058594 C 24.078125 14.796875 24.292969 14.582031 24.554688 14.582031 L 28.394531 14.582031 C 28.660156 14.582031 28.871094 14.796875 28.871094 15.058594 C 28.871094 15.320312 28.660156 15.535156 28.394531 15.535156 " fill-opacity="1" fill-rule="nonzero"/><path fill="#ffffff" d="M 37.335938 15.535156 L 33.5 15.535156 C 33.234375 15.535156 33.023438 15.320312 33.023438 15.058594 C 33.023438 14.796875 33.234375 14.582031 33.5 14.582031 L 37.335938 14.582031 C 37.601562 14.582031 37.816406 14.796875 37.816406 15.058594 C 37.816406 15.320312 37.601562 15.535156 37.335938 15.535156 " fill-opacity="1" fill-rule="nonzero"/><path fill="#000000" d="M 26.269531 45.511719 L 26.269531 45.53125 C 26.972656 45.53125 27.523438 45.375 27.898438 45.050781 C 28.277344 44.722656 28.46875 44.277344 28.46875 43.714844 C 28.46875 43.148438 28.277344 42.703125 27.882812 42.394531 C 27.488281 42.085938 26.953125 41.933594 26.269531 41.933594 L 24.410156 41.933594 L 24.410156 45.511719 Z M 26.320312 39.722656 C 27.042969 39.722656 27.695312 39.808594 28.261719 39.996094 C 28.828125 40.1875 29.3125 40.441406 29.707031 40.785156 C 30.101562 41.128906 30.410156 41.539062 30.617188 42.035156 C 30.824219 42.53125 30.925781 43.097656 30.925781 43.730469 C 30.925781 44.363281 30.824219 44.929688 30.617188 45.425781 C 30.410156 45.921875 30.101562 46.351562 29.707031 46.691406 C 29.3125 47.035156 28.828125 47.292969 28.261719 47.480469 C 27.695312 47.671875 27.042969 47.753906 26.320312 47.753906 L 24.410156 47.753906 L 24.410156 51.691406 L 22.023438 51.691406 L 22.023438 39.722656 L 26.320312 39.722656 " fill-opacity="1" fill-rule="nonzero"/><path fill="#000000" d="M 35.289062 45.476562 L 37.40625 45.511719 C 37.730469 45.511719 38.023438 45.460938 38.265625 45.359375 C 38.503906 45.253906 38.710938 45.117188 38.867188 44.945312 C 39.019531 44.777344 39.140625 44.585938 39.226562 44.382812 C 39.3125 44.175781 39.347656 43.953125 39.347656 43.730469 C 39.347656 43.488281 39.3125 43.269531 39.226562 43.0625 C 39.140625 42.859375 39.019531 42.667969 38.867188 42.5 C 38.710938 42.328125 38.503906 42.191406 38.265625 42.085938 C 38.023438 41.984375 37.75 41.933594 37.421875 41.933594 L 35.289062 41.933594 Z M 39.621094 51.710938 L 37.25 47.636719 L 35.289062 47.636719 L 35.289062 51.710938 L 32.902344 51.710938 L 32.902344 39.742188 L 37.113281 39.742188 C 37.851562 39.742188 38.519531 39.824219 39.109375 40.015625 C 39.691406 40.203125 40.191406 40.476562 40.585938 40.835938 C 40.980469 41.195312 41.289062 41.625 41.511719 42.121094 C 41.734375 42.617188 41.839844 43.164062 41.839844 43.765625 C 41.839844 44.585938 41.652344 45.289062 41.253906 45.871094 C 40.859375 46.453125 40.292969 46.898438 39.554688 47.191406 L 42.304688 51.710938 L 39.621094 51.710938 " fill-opacity="1" fill-rule="nonzero"/><path fill="#000000" d="M 46.050781 45.769531 C 46.050781 46.332031 46.136719 46.863281 46.324219 47.34375 C 46.515625 47.824219 46.773438 48.234375 47.097656 48.578125 C 47.425781 48.917969 47.820312 49.175781 48.285156 49.363281 C 48.746094 49.550781 49.246094 49.640625 49.796875 49.640625 C 50.34375 49.640625 50.859375 49.535156 51.328125 49.347656 C 51.789062 49.160156 52.183594 48.886719 52.511719 48.542969 C 52.839844 48.199219 53.097656 47.789062 53.285156 47.308594 C 53.476562 46.828125 53.558594 46.300781 53.558594 45.734375 C 53.558594 45.152344 53.476562 44.621094 53.285156 44.140625 C 53.097656 43.660156 52.839844 43.253906 52.511719 42.910156 C 52.183594 42.566406 51.789062 42.292969 51.328125 42.105469 C 50.859375 41.914062 50.363281 41.8125 49.8125 41.8125 C 49.261719 41.8125 48.765625 41.898438 48.300781 42.085938 C 47.839844 42.273438 47.441406 42.53125 47.113281 42.875 C 46.789062 43.21875 46.53125 43.628906 46.34375 44.105469 C 46.152344 44.585938 46.066406 45.117188 46.066406 45.699219 Z M 43.503906 45.800781 C 43.503906 44.894531 43.679688 44.054688 44.003906 43.285156 C 44.332031 42.515625 44.78125 41.847656 45.34375 41.300781 C 45.910156 40.75 46.582031 40.324219 47.339844 40.015625 C 48.09375 39.707031 48.902344 39.550781 49.761719 39.550781 C 50.621094 39.550781 51.429688 39.707031 52.183594 40.015625 C 52.941406 40.324219 53.613281 40.75 54.179688 41.300781 C 54.746094 41.847656 55.191406 42.5 55.519531 43.269531 C 55.84375 44.039062 56.019531 44.878906 56.019531 45.785156 C 56.019531 46.691406 55.863281 47.53125 55.535156 48.304688 C 55.210938 49.074219 54.761719 49.722656 54.195312 50.273438 C 53.628906 50.820312 52.960938 51.246094 52.203125 51.554688 C 51.445312 51.847656 50.636719 52 49.777344 52 C 48.921875 52 48.113281 51.847656 47.355469 51.554688 C 46.597656 51.246094 45.945312 50.820312 45.378906 50.273438 C 44.8125 49.722656 44.367188 49.058594 44.039062 48.285156 C 43.714844 47.515625 43.558594 46.675781 43.558594 45.769531 L 43.503906 45.800781 " fill-opacity="1" fill-rule="nonzero"/><path fill="#000000" d="M 69.871094 39.707031 L 69.78125 51.691406 L 67.429688 51.691406 L 67.429688 47.960938 C 67.429688 47.328125 67.429688 46.746094 67.445312 46.230469 C 67.464844 45.71875 67.480469 45.273438 67.480469 44.894531 C 67.480469 44.519531 67.464844 44.226562 67.480469 44.023438 L 67.5 43.714844 L 67.480469 43.714844 L 67.34375 43.953125 C 67.253906 44.105469 67.152344 44.296875 67.035156 44.5 C 66.914062 44.707031 66.792969 44.914062 66.675781 45.117188 C 66.550781 45.324219 66.464844 45.460938 66.414062 45.546875 L 64.542969 48.765625 L 63.304688 48.765625 L 61.433594 45.546875 C 61.378906 45.460938 61.296875 45.324219 61.175781 45.117188 C 61.054688 44.914062 60.933594 44.707031 60.8125 44.5 C 60.691406 44.296875 60.589844 44.105469 60.503906 43.953125 L 60.367188 43.714844 L 60.351562 43.714844 L 60.367188 44.023438 C 60.382812 44.226562 60.382812 44.519531 60.402344 44.894531 C 60.417969 45.273438 60.433594 45.71875 60.453125 46.230469 C 60.46875 46.746094 60.46875 47.308594 60.46875 47.941406 L 60.46875 51.691406 L 58.117188 51.691406 L 58.117188 39.707031 L 60.367188 39.707031 L 62.859375 43.816406 C 63.082031 44.195312 63.269531 44.5 63.40625 44.742188 C 63.546875 44.980469 63.664062 45.167969 63.75 45.304688 C 63.839844 45.441406 63.886719 45.546875 63.921875 45.597656 L 63.976562 45.683594 L 63.992188 45.683594 L 64.042969 45.597656 C 64.078125 45.546875 64.128906 45.441406 64.214844 45.304688 C 64.300781 45.167969 64.421875 44.980469 64.558594 44.742188 C 64.695312 44.5 64.886719 44.195312 65.109375 43.816406 L 67.617188 39.707031 L 69.871094 39.707031 " fill-opacity="1" fill-rule="nonzero"/><path fill="#000000" d="M 74.425781 45.769531 C 74.425781 46.332031 74.511719 46.863281 74.699219 47.34375 C 74.890625 47.824219 75.148438 48.234375 75.472656 48.578125 C 75.800781 48.917969 76.195312 49.175781 76.660156 49.363281 C 77.125 49.550781 77.621094 49.640625 78.171875 49.640625 C 78.722656 49.640625 79.234375 49.535156 79.699219 49.347656 C 80.164062 49.160156 80.558594 48.886719 80.886719 48.542969 C 81.210938 48.199219 81.46875 47.789062 81.660156 47.308594 C 81.847656 46.828125 81.933594 46.300781 81.933594 45.734375 C 81.933594 45.152344 81.847656 44.621094 81.660156 44.140625 C 81.46875 43.660156 81.210938 43.253906 80.886719 42.910156 C 80.558594 42.566406 80.164062 42.292969 79.699219 42.105469 C 79.234375 41.914062 78.738281 41.8125 78.1875 41.8125 C 77.636719 41.8125 77.140625 41.898438 76.675781 42.085938 C 76.214844 42.273438 75.816406 42.53125 75.488281 42.875 C 75.164062 43.21875 74.90625 43.628906 74.71875 44.105469 C 74.527344 44.585938 74.441406 45.117188 74.441406 45.699219 Z M 71.882812 45.800781 C 71.882812 44.894531 72.054688 44.054688 72.378906 43.285156 C 72.707031 42.515625 73.152344 41.847656 73.71875 41.300781 C 74.285156 40.75 74.957031 40.324219 75.714844 40.015625 C 76.472656 39.707031 77.277344 39.550781 78.136719 39.550781 C 78.996094 39.550781 79.804688 39.707031 80.558594 40.015625 C 81.316406 40.324219 81.988281 40.75 82.554688 41.300781 C 83.117188 41.847656 83.566406 42.5 83.894531 43.269531 C 84.21875 44.039062 84.394531 44.878906 84.394531 45.785156 C 84.394531 46.691406 84.238281 47.53125 83.910156 48.304688 C 83.585938 49.074219 83.136719 49.722656 82.570312 50.273438 C 82.003906 50.820312 81.332031 51.246094 80.574219 51.554688 C 79.820312 51.847656 79.015625 52 78.152344 52 C 77.296875 52 76.488281 51.847656 75.730469 51.554688 C 74.976562 51.246094 74.324219 50.820312 73.753906 50.273438 C 73.1875 49.722656 72.742188 49.058594 72.414062 48.285156 C 72.089844 47.515625 71.933594 46.675781 71.933594 45.769531 L 71.882812 45.800781 " fill-opacity="1" fill-rule="nonzero"/><path fill="#000000" d="M 32.285156 63.527344 L 32.21875 63.59375 C 31.953125 63.046875 31.5625 62.578125 31.015625 62.195312 C 30.476562 61.8125 29.890625 61.554688 29.242188 61.441406 C 28.632812 61.328125 28.054688 61.339844 27.519531 61.453125 C 26.984375 61.566406 26.503906 61.785156 26.085938 62.089844 C 25.667969 62.394531 25.308594 62.789062 25.03125 63.273438 C 24.753906 63.753906 24.558594 64.292969 24.449219 64.902344 C 24.335938 65.527344 24.34375 66.121094 24.453125 66.675781 C 24.5625 67.226562 24.761719 67.71875 25.050781 68.132812 C 25.339844 68.546875 25.714844 68.898438 26.175781 69.191406 C 26.640625 69.488281 27.160156 69.675781 27.734375 69.777344 C 28.472656 69.910156 29.191406 69.847656 29.886719 69.613281 C 30.578125 69.375 31.144531 69 31.5625 68.484375 L 34.03125 69.632812 C 33.648438 70.15625 33.222656 70.613281 32.730469 71 C 32.242188 71.386719 31.707031 71.691406 31.128906 71.929688 C 30.550781 72.171875 29.929688 72.328125 29.289062 72.378906 C 28.644531 72.457031 27.980469 72.433594 27.296875 72.308594 C 26.367188 72.144531 25.53125 71.820312 24.769531 71.359375 C 24.015625 70.878906 23.394531 70.292969 22.890625 69.59375 C 22.386719 68.894531 22.035156 68.085938 21.835938 67.191406 C 21.632812 66.300781 21.628906 65.367188 21.808594 64.386719 C 21.984375 63.410156 22.335938 62.539062 22.835938 61.773438 C 23.339844 61.007812 23.949219 60.371094 24.667969 59.890625 C 25.386719 59.410156 26.191406 59.078125 27.066406 58.894531 C 27.941406 58.707031 28.839844 58.699219 29.765625 58.867188 C 30.414062 58.980469 31.011719 59.164062 31.574219 59.4375 C 32.136719 59.710938 32.632812 60.027344 33.082031 60.414062 C 33.527344 60.800781 33.925781 61.230469 34.257812 61.730469 C 34.585938 62.226562 34.855469 62.75 35.039062 63.320312 L 32.285156 63.527344 " fill-opacity="1" fill-rule="nonzero"/><path fill="#000000" d="M 38.484375 67.421875 C 38.375 68.035156 38.367188 68.621094 38.472656 69.175781 C 38.585938 69.726562 38.78125 70.222656 39.066406 70.652344 C 39.351562 71.085938 39.730469 71.4375 40.191406 71.730469 C 40.65625 72.023438 41.175781 72.214844 41.765625 72.320312 C 42.359375 72.425781 42.9375 72.414062 43.472656 72.300781 C 44.007812 72.1875 44.488281 71.972656 44.90625 71.664062 C 45.324219 71.359375 45.683594 70.964844 45.980469 70.484375 C 46.277344 70.003906 46.472656 69.449219 46.582031 68.839844 C 46.695312 68.214844 46.707031 67.625 46.597656 67.074219 C 46.488281 66.519531 46.289062 66.023438 46.007812 65.59375 C 45.71875 65.160156 45.347656 64.789062 44.882812 64.496094 C 44.421875 64.203125 43.90625 63.996094 43.3125 63.890625 C 42.71875 63.78125 42.164062 63.78125 41.628906 63.894531 C 41.09375 64.007812 40.617188 64.207031 40.199219 64.511719 C 39.777344 64.820312 39.421875 65.210938 39.125 65.691406 C 38.828125 66.171875 38.628906 66.726562 38.515625 67.351562 Z M 35.738281 66.96875 C 35.914062 65.988281 36.265625 65.121094 36.769531 64.351562 C 37.269531 63.585938 37.882812 62.953125 38.597656 62.472656 C 39.316406 61.992188 40.121094 61.660156 40.996094 61.476562 C 41.871094 61.289062 42.769531 61.28125 43.695312 61.445312 C 44.625 61.613281 45.460938 61.933594 46.21875 62.414062 C 46.972656 62.890625 47.609375 63.480469 48.117188 64.183594 C 48.621094 64.882812 48.976562 65.667969 49.175781 66.5625 C 49.375 67.457031 49.398438 68.394531 49.222656 69.375 C 49.046875 70.351562 48.714844 71.222656 48.210938 71.992188 C 47.710938 72.757812 47.101562 73.371094 46.382812 73.855469 C 45.664062 74.335938 44.859375 74.664062 43.984375 74.851562 C 43.113281 75.019531 42.214844 75.027344 41.289062 74.863281 C 40.363281 74.695312 39.523438 74.371094 38.765625 73.914062 C 38.011719 73.433594 37.390625 72.847656 36.886719 72.148438 C 36.382812 71.445312 36.03125 70.640625 35.828125 69.746094 C 35.625 68.851562 35.625 67.917969 35.800781 66.941406 L 35.738281 66.96875 " fill-opacity="1" fill-rule="nonzero"/><path fill="#000000" d="M 56.429688 74.765625 L 56.394531 74.757812 C 56.929688 74.851562 57.464844 74.851562 57.980469 74.757812 C 58.496094 74.65625 58.96875 74.476562 59.398438 74.210938 C 59.828125 73.945312 60.199219 73.574219 60.515625 73.117188 C 60.828125 72.660156 61.042969 72.105469 61.15625 71.480469 C 61.269531 70.851562 61.261719 70.257812 61.128906 69.722656 C 60.996094 69.183594 60.78125 68.6875 60.476562 68.253906 C 60.171875 67.816406 59.796875 67.464844 59.351562 67.191406 C 58.902344 66.917969 58.398438 66.734375 57.863281 66.640625 L 54.84375 66.09375 L 53.375 74.214844 Z M 58.261719 64.234375 L 58.234375 64.269531 C 59.160156 64.433594 60.003906 64.738281 60.761719 65.199219 C 61.519531 65.65625 62.144531 66.226562 62.652344 66.90625 C 63.160156 67.589844 63.515625 68.359375 63.726562 69.214844 C 63.933594 70.074219 63.957031 70.992188 63.777344 71.972656 C 63.605469 72.929688 63.28125 73.765625 62.789062 74.496094 C 62.292969 75.226562 61.691406 75.804688 60.996094 76.25 C 60.304688 76.699219 59.523438 76.996094 58.652344 77.164062 C 57.785156 77.332031 56.886719 77.320312 55.957031 77.152344 L 50.332031 76.144531 L 52.667969 63.230469 L 58.261719 64.234375 " fill-opacity="1" fill-rule="nonzero"/><path fill="#000000" d="M 74.617188 78.03125 L 74.179688 80.429688 L 64.902344 78.761719 L 67.242188 65.847656 L 76.40625 67.492188 L 75.972656 69.894531 L 69.382812 68.710938 L 68.882812 71.457031 L 74.089844 72.390625 L 73.679688 74.644531 L 68.476562 73.707031 L 67.914062 76.828125 L 74.617188 78.03125 " fill-opacity="1" fill-rule="nonzero"/></svg>