<svg xmlns="http://www.w3.org/2000/svg" xmlns:xlink="http://www.w3.org/1999/xlink" width="149" zoomAndPan="magnify" viewBox="0 0 111.75 110.999996" height="148" preserveAspectRatio="xMidYMid meet" version="1.0"><defs><clipPath id="d3f7afc701"><path d="M 0 0.125 L 111.5 0.125 L 111.5 110.875 L 0 110.875 Z M 0 0.125 " clip-rule="nonzero"/></clipPath></defs><path fill="#ffffff" d="M 46.515625 45.644531 C 46.6875 45.644531 46.867188 45.59375 47.019531 45.484375 C 48.199219 44.652344 49.976562 44.941406 49.996094 44.941406 C 50.480469 45.023438 50.929688 44.703125 51.011719 44.226562 C 51.097656 43.746094 50.773438 43.289062 50.296875 43.207031 C 50.195312 43.1875 47.789062 42.789062 46.007812 44.042969 C 45.609375 44.324219 45.515625 44.875 45.792969 45.269531 C 45.964844 45.515625 46.238281 45.644531 46.515625 45.644531 Z M 46.515625 45.644531 " fill-opacity="1" fill-rule="nonzero"/><path fill="#ffffff" d="M 61.835938 52.007812 C 62.269531 52.007812 62.660156 51.828125 62.941406 51.539062 C 63.007812 51.542969 63.074219 51.550781 63.140625 51.550781 C 63.671875 51.550781 64.234375 51.464844 64.734375 51.25 C 65.179688 51.058594 65.386719 50.539062 65.195312 50.09375 C 65.003906 49.648438 64.488281 49.441406 64.039062 49.628906 C 63.980469 49.65625 63.917969 49.675781 63.851562 49.691406 C 63.867188 49.675781 63.886719 49.660156 63.902344 49.644531 C 64.195312 49.257812 64.125 48.703125 63.738281 48.410156 C 63.351562 48.113281 62.800781 48.183594 62.503906 48.570312 C 62.28125 48.859375 61.917969 48.902344 61.71875 48.902344 C 61.652344 48.902344 61.59375 48.929688 61.53125 48.941406 C 61.527344 48.945312 61.523438 48.945312 61.519531 48.945312 C 61.457031 48.960938 61.394531 48.972656 61.335938 49 C 60.726562 49.210938 60.289062 49.78125 60.289062 50.457031 C 60.289062 51.3125 60.980469 52.007812 61.835938 52.007812 Z M 61.835938 52.007812 " fill-opacity="1" fill-rule="nonzero"/><path fill="#ffffff" d="M 49.976562 49 C 49.917969 48.972656 49.855469 48.957031 49.789062 48.945312 C 49.785156 48.941406 49.78125 48.941406 49.78125 48.941406 C 49.714844 48.929688 49.65625 48.902344 49.589844 48.902344 C 49.390625 48.902344 49.027344 48.859375 48.804688 48.570312 C 48.507812 48.183594 47.957031 48.113281 47.570312 48.40625 C 47.1875 48.703125 47.113281 49.257812 47.410156 49.644531 C 47.425781 49.664062 47.445312 49.675781 47.460938 49.695312 C 47.398438 49.675781 47.335938 49.660156 47.285156 49.636719 C 46.839844 49.4375 46.316406 49.636719 46.121094 50.082031 C 45.921875 50.523438 46.121094 51.046875 46.566406 51.246094 C 47.042969 51.457031 47.605469 51.542969 48.152344 51.542969 C 48.222656 51.542969 48.292969 51.535156 48.363281 51.53125 C 48.644531 51.824219 49.035156 52.003906 49.472656 52.003906 C 50.328125 52.003906 51.019531 51.3125 51.019531 50.457031 C 51.019531 49.78125 50.582031 49.210938 49.976562 49 Z M 49.976562 49 " fill-opacity="1" fill-rule="nonzero"/><path fill="#ffffff" d="M 52.804688 58.238281 C 53.75 58.503906 54.714844 58.640625 55.671875 58.640625 C 56.628906 58.640625 57.597656 58.503906 58.542969 58.238281 C 60.105469 57.792969 61.015625 56.164062 60.574219 54.601562 C 60.21875 53.335938 59.054688 52.453125 57.738281 52.453125 C 57.464844 52.453125 57.195312 52.488281 56.9375 52.5625 C 56.097656 52.800781 55.25 52.800781 54.414062 52.566406 C 54.152344 52.488281 53.878906 52.453125 53.605469 52.453125 C 52.296875 52.453125 51.128906 53.335938 50.773438 54.597656 C 50.332031 56.160156 51.242188 57.792969 52.804688 58.238281 Z M 52.46875 55.078125 C 52.609375 54.570312 53.078125 54.214844 53.605469 54.214844 C 53.714844 54.214844 53.824219 54.226562 53.933594 54.261719 C 55.085938 54.585938 56.265625 54.585938 57.417969 54.257812 C 58.023438 54.085938 58.707031 54.464844 58.878906 55.082031 C 59.058594 55.707031 58.691406 56.363281 58.0625 56.542969 C 56.480469 56.992188 54.863281 56.992188 53.285156 56.542969 C 52.65625 56.363281 52.289062 55.707031 52.46875 55.078125 Z M 52.46875 55.078125 " fill-opacity="1" fill-rule="nonzero"/><path fill="#ffffff" d="M 56.535156 82.019531 C 56.535156 82.261719 56.449219 82.46875 56.277344 82.640625 C 56.105469 82.8125 55.898438 82.898438 55.65625 82.898438 C 55.410156 82.898438 55.203125 82.8125 55.03125 82.640625 C 54.859375 82.46875 54.773438 82.261719 54.773438 82.019531 C 54.773438 81.773438 54.859375 81.566406 55.03125 81.394531 C 55.203125 81.222656 55.410156 81.136719 55.65625 81.136719 C 55.898438 81.136719 56.105469 81.222656 56.277344 81.394531 C 56.449219 81.566406 56.535156 81.773438 56.535156 82.019531 Z M 56.535156 82.019531 " fill-opacity="1" fill-rule="nonzero"/><path fill="#ffffff" d="M 56.535156 90.246094 C 56.535156 90.488281 56.449219 90.695312 56.277344 90.867188 C 56.105469 91.039062 55.898438 91.125 55.65625 91.125 C 55.410156 91.125 55.203125 91.039062 55.03125 90.867188 C 54.859375 90.695312 54.773438 90.488281 54.773438 90.246094 C 54.773438 90 54.859375 89.792969 55.03125 89.621094 C 55.203125 89.449219 55.410156 89.363281 55.65625 89.363281 C 55.898438 89.363281 56.105469 89.449219 56.277344 89.621094 C 56.449219 89.792969 56.535156 90 56.535156 90.246094 Z M 56.535156 90.246094 " fill-opacity="1" fill-rule="nonzero"/><path fill="#ffffff" d="M 4.167969 45.269531 L 12.394531 45.269531 C 12.882812 45.269531 13.277344 44.875 13.277344 44.390625 C 13.277344 43.902344 12.882812 43.507812 12.394531 43.507812 L 4.167969 43.507812 C 3.683594 43.507812 3.289062 43.902344 3.289062 44.390625 C 3.289062 44.875 3.683594 45.269531 4.167969 45.269531 Z M 4.167969 45.269531 " fill-opacity="1" fill-rule="nonzero"/><path fill="#ffffff" d="M 21.328125 48.226562 L 4.167969 48.226562 C 3.683594 48.226562 3.289062 48.621094 3.289062 49.105469 C 3.289062 49.59375 3.683594 49.988281 4.167969 49.988281 L 21.328125 49.988281 C 21.816406 49.988281 22.210938 49.59375 22.210938 49.105469 C 22.210938 48.621094 21.816406 48.226562 21.328125 48.226562 Z M 21.328125 48.226562 " fill-opacity="1" fill-rule="nonzero"/><path fill="#ffffff" d="M 19.382812 14.007812 C 19.871094 14.007812 20.261719 13.613281 20.261719 13.128906 L 20.261719 10.898438 C 20.261719 10.414062 19.871094 10.019531 19.382812 10.019531 C 18.898438 10.019531 18.503906 10.414062 18.503906 10.898438 L 18.503906 13.128906 C 18.503906 13.613281 18.898438 14.007812 19.382812 14.007812 Z M 19.382812 14.007812 " fill-opacity="1" fill-rule="nonzero"/><path fill="#ffffff" d="M 23.703125 14.007812 C 24.1875 14.007812 24.582031 13.613281 24.582031 13.128906 L 24.582031 10.898438 C 24.582031 10.414062 24.1875 10.019531 23.703125 10.019531 C 23.21875 10.019531 22.824219 10.414062 22.824219 10.898438 L 22.824219 13.128906 C 22.824219 13.613281 23.21875 14.007812 23.703125 14.007812 Z M 23.703125 14.007812 " fill-opacity="1" fill-rule="nonzero"/><path fill="#ffffff" d="M 26.761719 16.207031 C 27.003906 15.789062 26.859375 15.257812 26.445312 15.015625 C 26.03125 14.765625 25.492188 14.90625 25.242188 15.316406 C 25.199219 15.386719 24.199219 16.980469 21.542969 16.980469 C 18.886719 16.980469 17.886719 15.386719 17.847656 15.324219 C 17.605469 14.90625 17.066406 14.757812 16.648438 15.003906 C 16.226562 15.246094 16.082031 15.785156 16.324219 16.207031 C 16.386719 16.308594 17.832031 18.742188 21.542969 18.742188 C 25.253906 18.742188 26.703125 16.3125 26.761719 16.207031 Z M 26.761719 16.207031 " fill-opacity="1" fill-rule="nonzero"/><path fill="#ffffff" d="M 35.199219 14.007812 C 35.6875 14.007812 36.082031 13.613281 36.082031 13.128906 L 36.082031 10.898438 C 36.082031 10.414062 35.6875 10.019531 35.199219 10.019531 C 34.714844 10.019531 34.320312 10.414062 34.320312 10.898438 L 34.320312 13.128906 C 34.320312 13.613281 34.714844 14.007812 35.199219 14.007812 Z M 35.199219 14.007812 " fill-opacity="1" fill-rule="nonzero"/><path fill="#ffffff" d="M 39.519531 14.007812 C 40.007812 14.007812 40.402344 13.613281 40.402344 13.128906 L 40.402344 10.898438 C 40.402344 10.414062 40.007812 10.019531 39.519531 10.019531 C 39.035156 10.019531 38.640625 10.414062 38.640625 10.898438 L 38.640625 13.128906 C 38.640625 13.613281 39.035156 14.007812 39.519531 14.007812 Z M 39.519531 14.007812 " fill-opacity="1" fill-rule="nonzero"/><path fill="#ffffff" d="M 32.457031 18.398438 C 32.875 18.644531 33.410156 18.503906 33.660156 18.09375 C 33.703125 18.027344 34.703125 16.429688 37.359375 16.429688 C 40.015625 16.429688 41.019531 18.027344 41.054688 18.085938 C 41.21875 18.367188 41.511719 18.523438 41.816406 18.523438 C 41.96875 18.523438 42.117188 18.488281 42.257812 18.40625 C 42.679688 18.164062 42.824219 17.625 42.578125 17.203125 C 42.519531 17.101562 41.074219 14.667969 37.359375 14.667969 C 33.648438 14.667969 32.203125 17.101562 32.144531 17.203125 C 31.902344 17.621094 32.042969 18.152344 32.457031 18.398438 Z M 32.457031 18.398438 " fill-opacity="1" fill-rule="nonzero"/><g clip-path="url(#d3f7afc701)"><path fill="#ffffff" d="M 109.242188 62.621094 C 107.496094 60.789062 104.90625 60.097656 102.5 60.785156 L 98.960938 57.078125 C 99.4375 54.460938 99.6875 51.785156 99.6875 49.109375 C 99.6875 36.3125 94.175781 24.257812 84.546875 15.871094 C 87.554688 12.347656 88.523438 9.410156 88.765625 7.421875 C 88.957031 5.800781 88.421875 4.171875 87.296875 2.957031 L 85.648438 1.179688 C 85.046875 0.535156 84.234375 0.160156 83.355469 0.128906 C 82.460938 0.09375 81.632812 0.40625 80.988281 1.007812 L 79.242188 2.628906 C 77.910156 3.867188 77.835938 5.960938 79.070312 7.292969 C 79.542969 7.796875 79.648438 8.527344 79.347656 9.152344 C 79.066406 9.722656 78.648438 10.449219 78.105469 11.191406 C 71.328125 7.164062 63.585938 5.035156 55.65625 5.035156 C 51.570312 5.035156 47.535156 5.597656 43.640625 6.699219 C 41.921875 5.3125 39.738281 4.476562 37.359375 4.476562 C 34.253906 4.476562 31.328125 5.933594 29.445312 8.355469 C 27.605469 6 24.753906 4.476562 21.542969 4.476562 C 16.011719 4.476562 11.511719 8.980469 11.511719 14.511719 C 11.511719 19.265625 14.835938 23.25 19.277344 24.28125 C 16.445312 28.425781 14.367188 32.96875 13.089844 37.816406 L 5.320312 37.816406 C 2.5 37.816406 0.203125 40.113281 0.203125 42.9375 L 0.203125 53.515625 C 0.203125 56.34375 2.5 58.640625 5.320312 58.640625 L 12.660156 58.640625 C 14.222656 65.730469 17.496094 72.285156 22.226562 77.792969 C 21.675781 77.722656 21.117188 77.824219 20.621094 78.09375 C 20.261719 78.289062 19.964844 78.566406 19.734375 78.890625 L 17.253906 78.140625 C 15.613281 77.640625 13.894531 78.523438 13.335938 80.144531 C 12.808594 81.675781 13.511719 83.355469 14.976562 84.050781 L 21.183594 87 C 22.601562 87.671875 23.515625 89.121094 23.515625 90.691406 L 23.515625 110.242188 C 23.515625 110.726562 23.910156 111.121094 24.398438 111.121094 C 24.882812 111.121094 25.277344 110.726562 25.277344 110.242188 L 25.277344 90.691406 C 25.277344 88.445312 23.964844 86.367188 21.9375 85.40625 L 15.730469 82.457031 C 15.078125 82.148438 14.765625 81.402344 15 80.71875 C 15.25 79.996094 16.015625 79.609375 16.746094 79.824219 L 19.238281 80.578125 C 19.292969 81.613281 19.9375 82.570312 20.949219 82.953125 L 25.957031 84.863281 C 26.410156 85.035156 26.917969 84.808594 27.09375 84.351562 C 27.265625 83.898438 27.039062 83.390625 26.582031 83.214844 L 21.574219 81.304688 C 21.132812 81.136719 20.886719 80.644531 21.019531 80.1875 C 21.089844 79.953125 21.246094 79.757812 21.464844 79.636719 C 21.679688 79.519531 21.929688 79.492188 22.164062 79.566406 L 30.136719 81.945312 C 32.203125 82.5625 33.644531 84.5 33.644531 86.65625 L 33.644531 110.242188 C 33.644531 110.726562 34.039062 111.121094 34.527344 111.121094 C 35.011719 111.121094 35.40625 110.726562 35.40625 110.242188 L 35.40625 106.734375 C 36.300781 107.34375 37.339844 107.773438 38.566406 108.035156 L 38.566406 110.242188 C 38.566406 110.726562 38.960938 111.121094 39.445312 111.121094 C 39.933594 111.121094 40.328125 110.726562 40.328125 110.242188 L 40.328125 91.644531 C 40.328125 91.160156 39.933594 90.765625 39.445312 90.765625 C 38.960938 90.765625 38.566406 91.160156 38.566406 91.644531 L 38.566406 102.402344 C 37.300781 101.828125 36.246094 101.070312 35.40625 100.144531 L 35.40625 91.464844 C 39.21875 84.609375 44.078125 80.941406 47.695312 79.03125 L 50.605469 82.320312 C 50.773438 82.511719 51.015625 82.617188 51.265625 82.617188 C 51.296875 82.617188 51.328125 82.617188 51.355469 82.613281 C 51.640625 82.585938 51.890625 82.417969 52.03125 82.171875 L 52.074219 82.097656 L 52.074219 95.996094 C 52.074219 96.484375 52.46875 96.878906 52.953125 96.878906 L 58.355469 96.878906 C 58.84375 96.878906 59.238281 96.484375 59.238281 95.996094 L 59.238281 82.101562 L 59.277344 82.175781 C 59.417969 82.421875 59.667969 82.585938 59.953125 82.617188 C 59.984375 82.621094 60.015625 82.621094 60.042969 82.621094 C 60.296875 82.621094 60.535156 82.515625 60.703125 82.324219 L 63.613281 79.035156 C 67.230469 80.945312 72.089844 84.613281 75.902344 91.46875 L 75.902344 100.144531 C 75.066406 101.070312 74.007812 101.828125 72.742188 102.402344 L 72.742188 91.648438 C 72.742188 91.160156 72.347656 90.765625 71.863281 90.765625 C 71.378906 90.765625 70.984375 91.160156 70.984375 91.648438 L 70.984375 110.242188 C 70.984375 110.730469 71.378906 111.125 71.863281 111.125 C 72.347656 111.125 72.742188 110.730469 72.742188 110.242188 L 72.742188 108.039062 C 73.972656 107.773438 75.011719 107.347656 75.902344 106.738281 L 75.902344 110.242188 C 75.902344 110.730469 76.296875 111.125 76.785156 111.125 C 77.269531 111.125 77.664062 110.730469 77.664062 110.242188 L 77.664062 86.660156 C 77.664062 84.503906 79.105469 82.566406 81.171875 81.949219 L 89.144531 79.566406 C 89.378906 79.496094 89.628906 79.523438 89.847656 79.640625 C 90.0625 79.757812 90.21875 79.953125 90.289062 80.191406 C 90.421875 80.648438 90.179688 81.140625 89.734375 81.308594 L 84.726562 83.21875 C 84.273438 83.390625 84.046875 83.898438 84.21875 84.355469 C 84.390625 84.8125 84.902344 85.035156 85.355469 84.867188 L 90.363281 82.957031 C 91.371094 82.570312 92.019531 81.617188 92.074219 80.582031 L 94.566406 79.828125 C 95.292969 79.609375 96.0625 80 96.3125 80.722656 C 96.546875 81.402344 96.230469 82.148438 95.582031 82.460938 L 89.371094 85.410156 C 87.34375 86.371094 86.035156 88.445312 86.035156 90.691406 L 86.035156 110.246094 C 86.035156 110.730469 86.429688 111.125 86.914062 111.125 C 87.398438 111.125 87.792969 110.730469 87.792969 110.246094 L 87.792969 90.691406 C 87.792969 89.121094 88.710938 87.671875 90.128906 87 L 96.335938 84.050781 C 97.796875 83.355469 98.503906 81.679688 97.976562 80.148438 C 97.417969 78.527344 95.699219 77.644531 94.058594 78.144531 L 91.578125 78.894531 C 91.34375 78.570312 91.050781 78.292969 90.6875 78.097656 C 90.183594 77.820312 89.621094 77.726562 89.0625 77.800781 C 92.507812 73.78125 95.214844 69.144531 97.023438 64.195312 L 97.933594 65.152344 C 97.140625 67.519531 97.710938 70.144531 99.457031 71.976562 C 100.757812 73.335938 102.515625 74.070312 104.332031 74.070312 C 104.996094 74.070312 105.667969 73.96875 106.328125 73.769531 C 106.726562 73.648438 106.984375 73.265625 106.949219 72.851562 C 106.910156 72.433594 106.589844 72.101562 106.179688 72.050781 C 105.761719 72 105.15625 71.828125 104.652344 71.300781 C 104.183594 70.808594 103.933594 70.164062 103.949219 69.484375 C 103.964844 68.804688 104.246094 68.171875 104.734375 67.703125 C 105.75 66.734375 107.359375 66.769531 108.328125 67.785156 C 108.832031 68.3125 108.976562 68.925781 109.007812 69.34375 C 109.042969 69.757812 109.359375 70.09375 109.769531 70.148438 C 110.183594 70.203125 110.578125 69.964844 110.714844 69.570312 C 111.582031 67.140625 111.015625 64.480469 109.242188 62.621094 Z M 80.929688 9.921875 C 81.550781 8.636719 81.328125 7.136719 80.359375 6.09375 C 79.785156 5.46875 79.820312 4.496094 80.441406 3.917969 L 82.1875 2.296875 C 82.488281 2.019531 82.882812 1.871094 83.289062 1.886719 C 83.699219 1.902344 84.078125 2.078125 84.359375 2.378906 L 86.007812 4.15625 C 86.78125 4.992188 87.148438 6.105469 87.015625 7.210938 C 86.753906 9.386719 85.464844 12.890625 80.800781 17.222656 C 76.140625 21.554688 72.554688 22.582031 70.367188 22.683594 C 69.246094 22.726562 68.171875 22.285156 67.398438 21.449219 L 65.75 19.671875 C 65.472656 19.371094 65.324219 18.980469 65.339844 18.570312 C 65.355469 18.160156 65.527344 17.777344 65.832031 17.5 L 67.574219 15.878906 C 67.871094 15.601562 68.246094 15.46875 68.621094 15.46875 C 69.03125 15.46875 69.445312 15.632812 69.746094 15.957031 C 70.714844 17 72.195312 17.335938 73.519531 16.808594 C 74.679688 16.34375 76.382812 15.496094 77.898438 14.089844 C 79.410156 12.683594 80.382812 11.046875 80.929688 9.921875 Z M 37.359375 6.238281 C 41.917969 6.238281 45.628906 9.949219 45.628906 14.511719 C 45.628906 19.074219 41.917969 22.789062 37.359375 22.789062 C 34.585938 22.789062 31.996094 21.363281 30.472656 19.058594 C 31.167969 17.691406 31.570312 16.148438 31.570312 14.511719 C 31.570312 12.875 31.171875 11.335938 30.472656 9.964844 C 31.996094 7.664062 34.585938 6.238281 37.359375 6.238281 Z M 13.277344 14.511719 C 13.277344 9.949219 16.984375 6.238281 21.542969 6.238281 C 26.101562 6.238281 29.8125 9.949219 29.8125 14.511719 C 29.8125 19.074219 26.101562 22.789062 21.542969 22.789062 C 16.984375 22.789062 13.277344 19.074219 13.277344 14.511719 Z M 1.960938 53.515625 L 1.960938 42.9375 C 1.960938 41.085938 3.46875 39.578125 5.320312 39.578125 L 20.609375 39.578125 C 22.460938 39.578125 23.96875 41.085938 23.96875 42.9375 L 23.96875 53.757812 C 23.96875 54.035156 24.097656 54.296875 24.320312 54.460938 C 25.34375 55.234375 26.535156 56.128906 27.53125 56.878906 L 5.320312 56.878906 C 3.46875 56.878906 1.960938 55.371094 1.960938 53.515625 Z M 38.566406 104.300781 L 38.566406 106.226562 C 37.238281 105.886719 36.226562 105.308594 35.40625 104.421875 L 35.40625 102.53125 C 36.320312 103.246094 37.375 103.835938 38.566406 104.300781 Z M 51.105469 80.230469 L 48.835938 77.664062 C 49.109375 76.261719 49.882812 75.320312 51.234375 74.753906 L 52.980469 76.914062 Z M 62.910156 74.632812 C 62.335938 73.984375 61.582031 73.476562 60.664062 73.105469 L 60.664062 71.582031 C 64.867188 70.003906 68.226562 66.78125 69.863281 64.328125 C 70.589844 65.421875 70.984375 66.707031 70.984375 68.046875 C 70.984375 71.757812 67.964844 74.777344 64.257812 74.777344 C 63.800781 74.777344 63.351562 74.722656 62.910156 74.632812 Z M 73.304688 52.289062 C 74.609375 53.144531 75.125 55.125 74.4375 57 C 73.957031 58.3125 72.972656 59.277344 71.890625 59.613281 C 72.496094 57.53125 72.980469 55.042969 73.304688 52.289062 Z M 72.339844 49.398438 C 71.246094 48.179688 69.292969 46.289062 66.9375 45.339844 C 65.589844 44.796875 64.21875 44.644531 62.769531 44.476562 C 60.417969 44.210938 57.75 43.910156 54.460938 41.78125 C 49.460938 38.546875 49.128906 32.761719 49.125 32.707031 C 49.105469 32.265625 48.765625 31.90625 48.328125 31.867188 C 47.894531 31.832031 47.488281 32.117188 47.386719 32.542969 C 45.964844 38.652344 43.121094 44.308594 38.96875 49.390625 C 37.347656 45.097656 38.121094 38.722656 40.980469 33.882812 C 43.195312 30.136719 47.539062 25.671875 55.652344 25.671875 C 63.773438 25.671875 68.117188 30.140625 70.332031 33.886719 C 73.195312 38.730469 73.960938 45.109375 72.339844 49.398438 Z M 39.417969 59.613281 C 38.335938 59.277344 37.355469 58.308594 36.871094 57 C 36.183594 55.125 36.699219 53.144531 38.007812 52.289062 C 38.332031 55.042969 38.8125 57.53125 39.417969 59.613281 Z M 39.664062 51.320312 C 43.546875 46.777344 46.398438 41.769531 48.148438 36.378906 C 48.921875 38.558594 50.457031 41.289062 53.507812 43.261719 C 57.140625 45.613281 60.152344 45.957031 62.570312 46.230469 C 63.957031 46.386719 65.152344 46.523438 66.277344 46.976562 C 68.867188 48.015625 71.003906 50.503906 71.648438 51.304688 C 71.117188 56.359375 70.011719 60.691406 68.667969 62.929688 C 66.851562 65.960938 61.710938 70.769531 55.652344 70.769531 C 49.59375 70.769531 44.453125 65.960938 42.636719 62.929688 C 41.296875 60.691406 40.195312 56.371094 39.664062 51.320312 Z M 55.65625 72.53125 C 56.773438 72.53125 57.855469 72.375 58.90625 72.121094 L 58.90625 73.402344 L 56.847656 75.945312 L 54.460938 75.945312 L 52.402344 73.398438 L 52.402344 72.117188 C 53.453125 72.375 54.535156 72.53125 55.65625 72.53125 Z M 57.476562 95.121094 L 53.832031 95.121094 L 53.832031 78.984375 L 54.554688 77.707031 L 56.753906 77.707031 L 57.476562 78.984375 Z M 60.203125 80.230469 L 58.328125 76.914062 L 60.074219 74.753906 C 61.425781 75.320312 62.199219 76.261719 62.472656 77.664062 Z M 72.746094 106.226562 L 72.746094 104.300781 C 73.933594 103.839844 74.992188 103.246094 75.902344 102.53125 L 75.902344 104.421875 C 75.082031 105.308594 74.074219 105.886719 72.746094 106.226562 Z M 85.847656 78.714844 L 80.667969 80.261719 C 77.863281 81.097656 75.902344 83.730469 75.902344 86.660156 L 75.902344 88.074219 C 72.078125 82.3125 67.585938 79.101562 64.191406 77.351562 C 64.136719 77.0625 64.066406 76.785156 63.976562 76.523438 C 64.070312 76.523438 64.164062 76.539062 64.257812 76.539062 C 68.9375 76.539062 72.746094 72.730469 72.746094 68.046875 C 72.746094 66.054688 72.054688 64.160156 70.796875 62.640625 C 70.964844 62.28125 71.125 61.898438 71.28125 61.488281 C 73.335938 61.394531 75.25 59.894531 76.089844 57.609375 C 77.140625 54.753906 76.105469 51.664062 73.789062 50.535156 C 75.832031 45.753906 75.070312 38.4375 71.851562 32.992188 C 68.390625 27.136719 62.636719 23.910156 55.65625 23.910156 C 48.675781 23.910156 42.925781 27.132812 39.464844 32.988281 C 36.242188 38.433594 35.480469 45.75 37.523438 50.535156 C 35.207031 51.664062 34.171875 54.753906 35.21875 57.609375 C 36.058594 59.894531 37.972656 61.398438 40.03125 61.488281 C 40.371094 62.394531 40.738281 63.1875 41.128906 63.835938 C 42.621094 66.328125 46.15625 69.898438 50.644531 71.582031 L 50.640625 73.109375 C 48.691406 73.898438 47.507812 75.324219 47.117188 77.347656 C 43.726562 79.097656 39.234375 82.308594 35.40625 88.074219 L 35.40625 86.660156 C 35.40625 83.730469 33.445312 81.097656 30.640625 80.261719 L 25.457031 78.714844 C 19.988281 73.125 16.203125 66.210938 14.464844 58.640625 L 30.160156 58.640625 C 30.539062 58.640625 30.875 58.398438 30.996094 58.039062 C 31.113281 57.679688 30.992188 57.285156 30.691406 57.058594 C 30.691406 57.058594 27.933594 54.976562 25.726562 53.316406 L 25.726562 42.9375 C 25.726562 40.113281 23.429688 37.816406 20.609375 37.816406 L 14.914062 37.816406 C 16.230469 33.042969 18.351562 28.582031 21.246094 24.535156 C 21.34375 24.539062 21.441406 24.550781 21.542969 24.550781 C 24.75 24.550781 27.605469 23.027344 29.441406 20.671875 C 31.328125 23.089844 34.253906 24.550781 37.359375 24.550781 C 42.890625 24.550781 47.386719 20.046875 47.386719 14.511719 C 47.386719 12.089844 46.527344 9.867188 45.089844 8.128906 C 48.523438 7.246094 52.070312 6.796875 55.652344 6.796875 C 63.164062 6.796875 70.496094 8.785156 76.9375 12.550781 C 76.855469 12.632812 76.785156 12.71875 76.699219 12.800781 C 75.386719 14.019531 73.890625 14.761719 72.867188 15.167969 C 72.222656 15.425781 71.503906 15.265625 71.035156 14.757812 C 69.800781 13.425781 67.710938 13.347656 66.375 14.585938 L 64.632812 16.207031 C 63.988281 16.804688 63.613281 17.621094 63.582031 18.503906 C 63.546875 19.382812 63.859375 20.222656 64.460938 20.871094 L 66.109375 22.648438 C 67.179688 23.800781 68.65625 24.449219 70.199219 24.449219 C 70.28125 24.449219 70.363281 24.445312 70.449219 24.441406 C 72.929688 24.328125 76.949219 23.207031 82 18.511719 C 82.492188 18.054688 82.9375 17.609375 83.363281 17.167969 C 92.625 25.222656 97.929688 36.808594 97.929688 49.105469 C 97.929688 51.246094 97.761719 53.382812 97.445312 55.488281 L 91.601562 49.359375 C 92.394531 46.992188 91.824219 44.367188 90.078125 42.535156 C 88.304688 40.679688 85.671875 39.988281 83.207031 40.742188 C 82.808594 40.863281 82.550781 41.246094 82.585938 41.660156 C 82.625 42.078125 82.945312 42.410156 83.355469 42.460938 C 83.773438 42.511719 84.378906 42.683594 84.882812 43.210938 C 85.851562 44.226562 85.8125 45.839844 84.800781 46.808594 C 83.785156 47.777344 82.175781 47.742188 81.207031 46.726562 C 80.703125 46.199219 80.558594 45.585938 80.523438 45.167969 C 80.492188 44.753906 80.175781 44.417969 79.765625 44.363281 C 79.355469 44.308594 78.957031 44.546875 78.820312 44.941406 C 77.953125 47.367188 78.519531 50.03125 80.292969 51.890625 C 82.042969 53.722656 84.632812 54.414062 87.035156 53.726562 L 95.664062 62.769531 C 93.636719 68.707031 90.257812 74.207031 85.847656 78.714844 Z M 106.589844 65.234375 C 105.441406 65.207031 104.351562 65.632812 103.523438 66.425781 C 102.691406 67.222656 102.21875 68.292969 102.191406 69.441406 C 102.167969 70.425781 102.472656 71.367188 103.058594 72.136719 C 102.191406 71.90625 101.382812 71.4375 100.734375 70.757812 C 99.339844 69.292969 98.957031 67.148438 99.765625 65.296875 C 99.90625 64.96875 99.835938 64.589844 99.59375 64.335938 L 87.921875 52.105469 C 87.753906 51.929688 87.523438 51.832031 87.285156 51.832031 C 87.179688 51.832031 87.074219 51.851562 86.972656 51.890625 C 85.082031 52.613281 82.960938 52.132812 81.566406 50.671875 C 80.914062 49.992188 80.484375 49.164062 80.292969 48.28125 C 81.949219 49.660156 84.421875 49.605469 86.015625 48.082031 C 87.609375 46.558594 87.777344 44.089844 86.476562 42.371094 C 87.347656 42.601562 88.152344 43.070312 88.800781 43.753906 C 90.199219 45.214844 90.578125 47.359375 89.773438 49.214844 C 89.628906 49.539062 89.699219 49.917969 89.941406 50.175781 L 101.613281 62.402344 C 101.859375 62.660156 102.234375 62.742188 102.5625 62.617188 C 104.453125 61.894531 106.574219 62.375 107.972656 63.835938 C 108.621094 64.515625 109.050781 65.34375 109.242188 66.226562 C 108.5 65.605469 107.574219 65.257812 106.589844 65.234375 Z M 106.589844 65.234375 " fill-opacity="1" fill-rule="nonzero"/></g><path fill="#ffffff" d="M 17.679688 77.023438 C 17.859375 77.023438 18.035156 76.972656 18.191406 76.859375 C 18.585938 76.578125 18.679688 76.027344 18.398438 75.632812 C 15.722656 71.875 13.640625 67.761719 12.210938 63.398438 C 12.058594 62.933594 11.5625 62.683594 11.101562 62.835938 C 10.636719 62.984375 10.386719 63.484375 10.539062 63.945312 C 12.027344 68.480469 14.1875 72.753906 16.964844 76.652344 C 17.136719 76.894531 17.40625 77.023438 17.679688 77.023438 Z M 17.679688 77.023438 " fill-opacity="1" fill-rule="nonzero"/><path fill="#ffffff" d="M 99.691406 36.761719 C 99.800781 37.148438 100.152344 37.402344 100.535156 37.402344 C 100.613281 37.402344 100.695312 37.394531 100.773438 37.371094 C 101.242188 37.238281 101.515625 36.753906 101.386719 36.285156 C 99.742188 30.398438 97.007812 24.953125 93.261719 20.09375 C 92.964844 19.707031 92.410156 19.636719 92.027344 19.933594 C 91.640625 20.230469 91.570312 20.785156 91.867188 21.167969 C 95.476562 25.847656 98.105469 31.09375 99.691406 36.761719 Z M 99.691406 36.761719 " fill-opacity="1" fill-rule="nonzero"/><path fill="#ffffff" d="M 47.019531 4.164062 C 52.671875 3.082031 58.636719 3.082031 64.292969 4.164062 C 64.347656 4.175781 64.40625 4.179688 64.460938 4.179688 C 64.875 4.179688 65.242188 3.886719 65.324219 3.464844 C 65.414062 2.988281 65.101562 2.527344 64.625 2.433594 C 58.75 1.3125 52.554688 1.3125 46.6875 2.433594 C 46.210938 2.527344 45.898438 2.988281 45.992188 3.464844 C 46.082031 3.941406 46.542969 4.257812 47.019531 4.164062 Z M 47.019531 4.164062 " fill-opacity="1" fill-rule="nonzero"/><path fill="#ffffff" d="M 84.835938 75.136719 C 85.003906 75.277344 85.207031 75.347656 85.40625 75.347656 C 85.65625 75.347656 85.902344 75.242188 86.078125 75.039062 C 89.109375 71.476562 91.472656 67.457031 93.101562 63.09375 C 93.273438 62.636719 93.039062 62.128906 92.585938 61.960938 C 92.128906 61.789062 91.625 62.019531 91.453125 62.476562 C 89.898438 66.648438 87.636719 70.488281 84.738281 73.894531 C 84.421875 74.265625 84.46875 74.820312 84.835938 75.136719 Z M 84.835938 75.136719 " fill-opacity="1" fill-rule="nonzero"/><path fill="#ffffff" d="M 22.8125 26.320312 C 20.980469 28.960938 19.46875 31.816406 18.324219 34.8125 C 18.148438 35.269531 18.375 35.777344 18.832031 35.953125 C 18.933594 35.992188 19.039062 36.011719 19.144531 36.011719 C 19.5 36.011719 19.832031 35.792969 19.96875 35.445312 C 21.0625 32.582031 22.503906 29.847656 24.257812 27.324219 C 24.535156 26.925781 24.4375 26.375 24.035156 26.097656 C 23.636719 25.820312 23.089844 25.917969 22.8125 26.320312 Z M 22.8125 26.320312 " fill-opacity="1" fill-rule="nonzero"/></svg>